<?xml version="1.0" encoding="UTF-8"?>
<svg id="Capa_2" data-name="Capa 2" xmlns="http://www.w3.org/2000/svg" viewBox="0 0 178 222">
  <defs>
    <style>
      .cls-1 {
        fill: none;
        stroke: #ffeecf;
        stroke-linecap: round;
        stroke-linejoin: round;
        stroke-width: 7.82px;
      }

      .cls-2 {
        fill: #fff;
      }

      .cls-3 {
        fill: #ff5050;
      }
    </style>
  </defs>
  <g id="Capa_1-2" data-name="Capa 1">
    <g>
      <path class="cls-2" d="M178,32.14v113.72c0,17.75-14.39,32.14-32.14,32.14h-18.18c-2.73,0-5.26,1.44-6.64,3.8l-19.72,33.5c-5.25,8.93-18.39,8.93-23.64,0l-19.72-33.5c-1.38-2.35-3.91-3.8-6.64-3.8h-19.18c-17.75,0-32.14-14.39-32.14-32.14V32.14C0,14.39,14.39,0,32.14,0h113.72c17.75,0,32.14,14.39,32.14,32.14Z"/>
      <path class="cls-3" d="M166,31.79v114.42c0,10.93-8.86,19.79-19.79,19.79h-23.9c-2.87,0-5.49,1.59-6.82,4.13l-15.22,29.02c-4.78,9.13-16.76,9.13-21.54,0l-15.22-29.02c-1.33-2.54-3.96-4.13-6.82-4.13h-24.9c-10.93,0-19.79-8.86-19.79-19.79V31.79c0-10.93,8.86-19.79,19.79-19.79h114.42c10.93,0,19.79,8.86,19.79,19.79Z"/>
      <g>
        <path class="cls-1" d="M49.76,51v27.37c0,4.3,3.52,7.82,7.82,7.82h15.64c4.32,0,7.82-3.5,7.82-7.82v-27.37"/>
        <path class="cls-1" d="M65.4,51v78.2"/>
        <path class="cls-1" d="M120.14,101.83v-50.83c-10.8,0-19.55,8.75-19.55,19.55v23.46c0,4.3,3.52,7.82,7.82,7.82h11.73ZM120.14,101.83v27.37"/>
      </g>
    </g>
  </g>
</svg>