<?xml version="1.0" encoding="UTF-8"?>
<svg id="Capa_2" data-name="Capa 2" xmlns="http://www.w3.org/2000/svg" xmlns:xlink="http://www.w3.org/1999/xlink" viewBox="0 0 237 279">
  <defs>
    <style>
      .cls-1 {
        fill: none;
        stroke: #ffeecf;
        stroke-linecap: round;
        stroke-linejoin: round;
        stroke-width: 7.82px;
      }

      .cls-2 {
        fill: #7dc94c;
      }

      .cls-3, .cls-4 {
        fill: #fff;
      }

      .cls-5 {
        fill: #ff5050;
      }

      .cls-4 {
        filter: url(#drop-shadow-1);
      }
    </style>
    <filter id="drop-shadow-1" x="0" y="0" width="237" height="279" filterUnits="userSpaceOnUse">
      <feOffset dx="10" dy="10"/>
      <feGaussianBlur result="blur" stdDeviation="5"/>
      <feFlood flood-color="#000" flood-opacity=".35"/>
      <feComposite in2="blur" operator="in"/>
      <feComposite in="SourceGraphic"/>
    </filter>
  </defs>
  <g id="Capa_1-2" data-name="Capa 1">
    <path class="cls-4" d="M208.23,26.5l-26.56,26.45-2.71,2.7c-1.07,1.06-2.47,1.59-3.87,1.59s-2.81-.53-3.88-1.59l-2.29-2.28-7.94-7.92h-.02s-6.07-6.06-6.07-6.06c-2.15-2.14-2.16-5.61-.02-7.76.11-.11.23-.22.35-.32,2.15-1.82,5.38-1.72,7.41.3l2.76,2.75c4.19,2.06,7.86,5.01,10.77,8.59l25.79-25.68c-6.96-7.54-16.91-12.27-27.95-12.27-16.78,0-31.06,10.94-36.08,26.06H37.48c-17.75,0-32.14,14.39-32.14,32.14v113.72c0,17.75,14.39,32.14,32.14,32.14h19.18c2.73,0,5.26,1.44,6.64,3.8l19.72,33.5c5.25,8.93,18.39,8.93,23.64,0l19.71-33.5c1.39-2.36,3.91-3.8,6.64-3.8h18.19c17.75,0,32.14-14.39,32.14-32.14v-97.08c16.45-4.17,28.66-19.11,28.66-36.84,0-5.91-1.36-11.51-3.77-16.5ZM171.34,177.27c0,10.93-8.86,19.79-19.79,19.79h-23.9c-2.87,0-5.5,1.59-6.83,4.13l-15.21,29.02c-4.78,9.13-16.76,9.13-21.54,0l-15.22-29.02c-1.33-2.54-3.96-4.13-6.82-4.13h-24.9c-10.93,0-19.79-8.86-19.79-19.79V62.85c0-10.93,8.86-19.79,19.79-19.79h98.87c.03,20.03,15.65,36.48,35.34,37.85v96.36Z"/>
    <path class="cls-3" d="M168.92,53.37l-7.94-7.92c3.35,1.82,6.12,4.57,7.94,7.92Z"/>
    <path class="cls-3" d="M176.16,42.95l-1.07,1.06-9.7-9.65c4.19,2.06,7.86,5.01,10.77,8.59Z"/>
    <circle class="cls-2" cx="174" cy="43" r="29"/>
    <g>
      <path class="cls-3" d="M214.87,19.89l-6.64,6.61-26.56,26.45-2.71,2.7c-1.07,1.06-2.47,1.59-3.87,1.59s-2.81-.53-3.88-1.59l-2.29-2.28c-1.82-3.35-4.59-6.1-7.94-7.92h-.02s-6.07-6.06-6.07-6.06c-2.15-2.14-2.16-5.61-.02-7.76.11-.11.23-.22.35-.32,2.15-1.82,5.38-1.72,7.41.3l2.76,2.75,9.7,9.65,1.07-1.06,25.79-25.68,5.18-5.16c2.15-2.14,5.62-2.13,7.76.02,2.14,2.15,2.13,5.62-.02,7.76Z"/>
      <path class="cls-3" d="M168.92,53.37l-7.94-7.92c3.35,1.82,6.12,4.57,7.94,7.92Z"/>
    </g>
    <g>
      <path class="cls-5" d="M171.34,80.91v96.36c0,10.93-8.86,19.79-19.79,19.79h-23.9c-2.87,0-5.5,1.59-6.83,4.13l-15.21,29.02c-4.78,9.13-16.76,9.13-21.54,0l-15.22-29.02c-1.33-2.54-3.96-4.13-6.82-4.13h-24.9c-10.93,0-19.79-8.86-19.79-19.79V62.85c0-10.93,8.86-19.79,19.79-19.79h98.87c.03,20.03,15.65,36.48,35.34,37.85Z"/>
      <g>
        <path class="cls-1" d="M55.09,82.06v27.37c0,4.3,3.52,7.82,7.82,7.82h15.64c4.32,0,7.82-3.5,7.82-7.82v-27.37"/>
        <path class="cls-1" d="M70.73,82.06v78.2"/>
        <path class="cls-1" d="M125.48,132.89v-50.83c-10.8,0-19.55,8.75-19.55,19.55v23.46c0,4.3,3.52,7.82,7.82,7.82h11.73ZM125.48,132.89v27.37"/>
      </g>
    </g>
  </g>
</svg>