<?xml version="1.0" encoding="UTF-8"?>
<svg id="Capa_2" data-name="Capa 2" xmlns="http://www.w3.org/2000/svg" xmlns:xlink="http://www.w3.org/1999/xlink" viewBox="0 0 271 316">
  <defs>
    <style>
      .cls-1 {
        fill: none;
        stroke: #ffb94a;
        stroke-linecap: round;
        stroke-linejoin: round;
        stroke-width: 7.82px;
      }

      .cls-2 {
        fill: #fff;
        filter: url(#drop-shadow-1);
      }

      .cls-3 {
        fill: #262624;
      }

      .cls-4 {
        fill: #b5b5b5;
      }
    </style>
    <filter id="drop-shadow-1" x="0" y="0" width="271" height="316" filterUnits="userSpaceOnUse">
      <feOffset dx="10" dy="10"/>
      <feGaussianBlur result="blur" stdDeviation="5"/>
      <feFlood flood-color="#000" flood-opacity=".35"/>
      <feComposite in2="blur" operator="in"/>
      <feComposite in="SourceGraphic"/>
    </filter>
  </defs>
  <g id="Capa_1-2" data-name="Capa 1">
    <g>
      <path class="cls-2" d="M245.6,95.82c-.45,4.37-2.99,8.28-6.8,10.47l-51.96,29.44c-1.15.65-2.37,1.16-3.64,1.51v77.55c0,17.75-14.39,32.14-32.14,32.14h-18.19c-2.73,0-5.25,1.45-6.64,3.8l-19.71,33.5c-5.25,8.93-18.39,8.93-23.64,0l-19.72-33.5c-1.38-2.35-3.91-3.8-6.64-3.8h-19.18c-17.75,0-32.14-14.39-32.14-32.14v-113.72c0-17.75,14.39-32.14,32.14-32.14h76.18c.33-1.64.92-3.24,1.78-4.75l29.41-51.9c2.46-4.29,7.01-6.92,11.9-6.92,2.38,0,4.73.62,6.79,1.81,3.82,2.18,6.36,6.1,6.81,10.47l1.94,25.11,27.8-8.61c1.23-.36,2.52-.54,3.8-.54,6.05,0,11.45,4.06,13.14,9.87.72,2.49.72,5.12,0,7.61l-8.61,27.79,25.12,1.95c3.63.37,6.9,2.14,9.21,4.97,2.3,2.83,3.37,6.4,2.99,10.03Z"/>
      <path class="cls-3" d="M171.2,100.72v114.42c0,10.93-8.86,19.79-19.79,19.79h-23.9c-2.87,0-5.49,1.59-6.82,4.13l-15.22,29.02c-4.78,9.13-16.76,9.13-21.54,0l-15.22-29.02c-1.33-2.54-3.96-4.13-6.82-4.13h-24.9c-10.93,0-19.79-8.86-19.79-19.79v-114.42c0-10.93,8.86-19.79,19.79-19.79h114.42c10.93,0,19.79,8.86,19.79,19.79Z"/>
      <g>
        <path class="cls-1" d="M54.95,119.93v27.37c0,4.3,3.52,7.82,7.82,7.82h15.64c4.32,0,7.82-3.5,7.82-7.82v-27.37"/>
        <path class="cls-1" d="M70.59,119.93v78.2"/>
        <path class="cls-1" d="M125.33,170.77v-50.83c-10.8,0-19.55,8.75-19.55,19.55v23.46c0,4.3,3.52,7.82,7.82,7.82h11.73ZM125.33,170.77v27.37"/>
      </g>
    </g>
    <path class="cls-4" d="M202.86,44.7c1.6-.54,3.19.28,3.56,1.83.13.53.1,1.1-.09,1.65l-13.01,36.44c-1.1,3.19.52,6.39,3.61,7.15.36.09.73.14,1.11.16l33.14.81c1.62.08,2.73,1.47,2.47,3.11-.15.95-.74,1.83-1.59,2.35l-56.45,33.95c-2.37,1.43-5.24,1.2-7.03-.56l-49.14-49.14c-1.76-1.79-1.99-4.66-.56-7.04l33.95-56.44c.89-1.46,2.72-2.05,4.1-1.31.8.43,1.31,1.25,1.36,2.19l.81,33.13c.14,3.24,2.9,5.48,6.18,5,.38-.06.76-.15,1.14-.28l36.44-13.01Z"/>
  </g>
</svg>