<?xml version="1.0" encoding="UTF-8"?>
<svg id="Capa_2" data-name="Capa 2" xmlns="http://www.w3.org/2000/svg" xmlns:xlink="http://www.w3.org/1999/xlink" viewBox="0 0 314 366">
  <defs>
    <style>
      .cls-1 {
        fill: #ffb94a;
      }

      .cls-2 {
        fill: #fff;
        filter: url(#drop-shadow-1);
      }

      .cls-3 {
        fill: #262624;
      }

      .cls-4 {
        fill: none;
        stroke: #ffb94a;
        stroke-linecap: round;
        stroke-linejoin: round;
        stroke-width: 9.04px;
      }
    </style>
    <filter id="drop-shadow-1" x="0" y="0" width="314" height="366" filterUnits="userSpaceOnUse">
      <feOffset dx="11.56" dy="11.56"/>
      <feGaussianBlur result="blur" stdDeviation="5.78"/>
      <feFlood flood-color="#000" flood-opacity=".35"/>
      <feComposite in2="blur" operator="in"/>
      <feComposite in="SourceGraphic"/>
    </filter>
  </defs>
  <g id="Capa_1-2" data-name="Capa 1">
    <g>
      <g>
        <path class="cls-2" d="M284.25,110.84c-.52,5.05-3.46,9.57-7.86,12.1l-60.07,34.03c-1.33.75-2.74,1.34-4.21,1.75v89.65c0,20.52-16.64,37.15-37.15,37.15h-21.03c-3.16,0-6.07,1.68-7.68,4.39l-22.79,38.73c-6.07,10.32-21.26,10.32-27.33,0l-22.8-38.73c-1.6-2.72-4.52-4.39-7.68-4.39h-22.17c-20.52,0-37.16-16.64-37.16-37.15V116.91c0-20.52,16.64-37.16,37.16-37.16h88.07c.38-1.9,1.06-3.75,2.06-5.49l34-60c2.84-4.96,8.1-8,13.76-8,2.75,0,5.47.72,7.85,2.09,4.42,2.52,7.35,7.05,7.87,12.1l2.24,29.03,32.14-9.95c1.42-.42,2.91-.62,4.39-.62,6.99,0,13.24,4.69,15.19,11.41.83,2.88.83,5.92,0,8.8l-9.95,32.13,29.04,2.25c4.2.43,7.98,2.47,10.65,5.75,2.66,3.27,3.9,7.4,3.46,11.6Z"/>
        <path class="cls-3" d="M198.24,116.51v132.27c0,12.64-10.24,22.88-22.88,22.88h-27.63c-3.31,0-6.35,1.84-7.89,4.77l-17.59,33.55c-5.53,10.55-19.38,10.55-24.9,0l-17.59-33.55c-1.54-2.93-4.58-4.77-7.89-4.77h-28.79c-12.64,0-22.88-10.24-22.88-22.88V116.51c0-12.64,10.24-22.88,22.88-22.88h132.27c12.64,0,22.88,10.24,22.88,22.88Z"/>
        <g>
          <path class="cls-4" d="M63.86,138.72v31.64c0,4.97,4.07,9.04,9.04,9.04h18.08c4.99,0,9.04-4.05,9.04-9.04v-31.64"/>
          <path class="cls-4" d="M81.94,138.72v90.41"/>
          <path class="cls-4" d="M145.22,197.48v-58.76c-12.48,0-22.6,10.12-22.6,22.6v27.12c0,4.97,4.07,9.04,9.04,9.04h13.56ZM145.22,197.48v31.64"/>
        </g>
      </g>
      <path class="cls-1" d="M234.84,51.74c1.84-.62,3.69.32,4.12,2.11.15.61.11,1.27-.1,1.91l-15.03,42.12c-1.27,3.68.6,7.39,4.17,8.27.42.1.85.16,1.29.18l38.31.94c1.87.09,3.15,1.7,2.86,3.6-.17,1.1-.86,2.11-1.84,2.71l-65.25,39.25c-2.74,1.65-6.06,1.39-8.13-.64l-56.8-56.8c-2.04-2.07-2.3-5.39-.65-8.13l39.25-65.24c1.03-1.69,3.15-2.37,4.74-1.52.93.5,1.51,1.44,1.57,2.53l.93,38.3c.16,3.75,3.36,6.33,7.14,5.78.44-.07.88-.17,1.31-.32l42.13-15.04Z"/>
    </g>
  </g>
</svg>