<?xml version="1.0" encoding="UTF-8"?>
<svg id="Capa_2" data-name="Capa 2" xmlns="http://www.w3.org/2000/svg" viewBox="0 0 724.96 171.57">
  <defs>
    <style>
      .cls-1 {
        fill: #ffeecf;
      }

      .cls-2 {
        fill: #ff5050;
      }
    </style>
  </defs>
  <g id="Capa_1-2" data-name="Capa 1">
    <path class="cls-1" d="M162.91,170.63c-14.04,0-27.78-.31-41.2-.94-2.11-.16-3.94-1.07-5.5-2.75-1.56-1.68-2.19-3.8-1.87-6.38.23-1.95.6-5.09,1.11-9.42.51-4.33.88-7.72,1.11-10.18.23-2.46.35-4.7.35-6.73,0-4.45-1.21-7.68-3.63-9.71-2.42-2.03-6.09-3.04-11-3.04-4.29,0-13.42.08-27.39.23-13.97.16-26.43.23-37.39.23s-18.82-.16-23.58-.47c-3.9-.39-7.2-2.2-9.89-5.44-2.69-3.24-4.04-7.39-4.04-12.46C0,76.65,5.42,45.02,16.27,8.66c.54-1.87,1.62-3.41,3.22-4.62,1.6-1.21,3.41-1.93,5.44-2.16,8.11-.62,18.65-.94,31.6-.94,17.71,0,30.74.31,39.09.94,2.65.23,4.56,1.27,5.73,3.1,1.17,1.83,1.33,4,.47,6.49-2.03,7.33-4.04,16.5-6.03,27.5s-3.02,19.9-3.1,26.68c0,8.66,3.63,12.99,10.88,12.99h2.81c3.82,0,6.79-1.13,8.89-3.39,2.11-2.26,3.16-5.46,3.16-9.6.08-3.82-.1-8.8-.53-14.92-.43-6.12-1.13-14.14-2.11-24.05-.98-9.91-1.46-14.98-1.46-15.21-.23-2.57.29-4.74,1.58-6.49s3.22-2.79,5.79-3.1c8.5-.62,21.53-.94,39.09-.94,13.11,0,23.72.31,31.83.94,1.87.23,3.51.96,4.92,2.16,1.4,1.21,2.26,2.75,2.57,4.62.16,1.09.53,3.92,1.11,8.48.58,4.56,1.01,7.9,1.29,10.01.27,2.11.64,5.38,1.11,9.83.47,4.45.82,8.27,1.05,11.47.23,3.2.45,6.95.64,11.23.19,4.29.29,8.43.29,12.41,0,.86.37,1.64,1.11,2.34.74.7,1.58,1.05,2.52,1.05,1.79,0,4.41-.04,7.84-.12,3.43-.08,6.01-.12,7.72-.12,1.48,0,2.71.45,3.69,1.35.97.9,1.5,2.13,1.58,3.69.47,11.47.47,22.9,0,34.29-.23,3.98-1.91,5.97-5.03,5.97h-13.22c-2.89,0-4.33,1.37-4.33,4.1,0,3.98.08,10.14.23,18.49.16,8.35.23,14.63.23,18.84,0,2.03-.74,3.79-2.22,5.27-1.48,1.48-3.28,2.3-5.38,2.46-12.48.62-24.97.94-37.45.94Z"/>
    <path class="cls-2" d="M440.95,23.28C422.15,7.76,396.01,0,362.55,0s-59.53,7.76-78.42,23.28c-18.88,15.53-28.32,37.57-28.32,66.13,0,54.76,35.57,82.15,106.74,82.15s106.61-27.39,106.61-82.15c0-28.56-9.41-50.6-28.2-66.13ZM412.18,88.12l-25.36,5,17.68,18.82,1.41,1.86-29.67,21.47-1.14-1.86-12.43-22.23h-.29l-12.28,22.23-1.41,1.86-29.64-21.47,1.41-1.86,17.79-18.96-25.51-4.86-2.31-.68,11.21-34.81,2.31.73,23.48,11.05-3.19-25.75v-2.36h36.44v2.36l-3.19,25.74,23.48-10.81,2.35-.73,11.21,34.58-2.35.68Z"/>
    <path class="cls-1" d="M657.44,170.63c-14.04,0-27.78-.31-41.2-.94-2.11-.16-3.94-1.07-5.5-2.75-1.56-1.68-2.19-3.8-1.87-6.38.23-1.95.6-5.09,1.11-9.42.51-4.33.88-7.72,1.11-10.18.23-2.46.35-4.7.35-6.73,0-4.45-1.21-7.68-3.63-9.71-2.42-2.03-6.09-3.04-11-3.04-4.29,0-13.42.08-27.39.23-13.97.16-26.43.23-37.39.23s-18.82-.16-23.58-.47c-3.9-.39-7.2-2.2-9.89-5.44-2.69-3.24-4.04-7.39-4.04-12.46,0-26.92,5.42-58.55,16.27-94.91.54-1.87,1.62-3.41,3.22-4.62,1.6-1.21,3.41-1.93,5.44-2.16,8.11-.62,18.65-.94,31.6-.94,17.71,0,30.74.31,39.09.94,2.65.23,4.56,1.27,5.73,3.1,1.17,1.83,1.33,4,.47,6.49-2.03,7.33-4.04,16.5-6.03,27.5s-3.02,19.9-3.1,26.68c0,8.66,3.63,12.99,10.88,12.99h2.81c3.82,0,6.79-1.13,8.89-3.39,2.11-2.26,3.16-5.46,3.16-9.6.08-3.82-.1-8.8-.53-14.92-.43-6.12-1.13-14.14-2.11-24.05-.98-9.91-1.46-14.98-1.46-15.21-.23-2.57.29-4.74,1.58-6.49s3.22-2.79,5.79-3.1c8.5-.62,21.53-.94,39.09-.94,13.11,0,23.72.31,31.83.94,1.87.23,3.51.96,4.92,2.16,1.4,1.21,2.26,2.75,2.57,4.62.16,1.09.53,3.92,1.11,8.48.58,4.56,1.01,7.9,1.29,10.01.27,2.11.64,5.38,1.11,9.83.47,4.45.82,8.27,1.05,11.47.23,3.2.45,6.95.64,11.23.19,4.29.29,8.43.29,12.41,0,.86.37,1.64,1.11,2.34.74.7,1.58,1.05,2.52,1.05,1.79,0,4.41-.04,7.84-.12,3.43-.08,6.01-.12,7.72-.12,1.48,0,2.71.45,3.69,1.35.97.9,1.5,2.13,1.58,3.69.47,11.47.47,22.9,0,34.29-.23,3.98-1.91,5.97-5.03,5.97h-13.22c-2.89,0-4.33,1.37-4.33,4.1,0,3.98.08,10.14.23,18.49.16,8.35.23,14.63.23,18.84,0,2.03-.74,3.79-2.22,5.27-1.48,1.48-3.28,2.3-5.38,2.46-12.48.62-24.97.94-37.45.94Z"/>
  </g>
</svg>