<?xml version="1.0" encoding="UTF-8"?>
<svg id="Capa_2" data-name="Capa 2" xmlns="http://www.w3.org/2000/svg" viewBox="0 0 6773 215.61">
  <defs>
    <style>
      .cls-1 {
        letter-spacing: -.05em;
      }

      .cls-2 {
        letter-spacing: 0em;
      }

      .cls-3 {
        letter-spacing: 0em;
      }

      .cls-4 {
        letter-spacing: 0em;
      }

      .cls-5 {
        fill: none;
        stroke: #1d1d1b;
        stroke-width: 3.34px;
      }

      .cls-5, .cls-6 {
        font-family: Gliker-Black, Gliker;
        font-size: 180.6px;
        font-weight: 800;
      }

      .cls-7 {
        letter-spacing: 0em;
      }

      .cls-8 {
        letter-spacing: -.02em;
      }

      .cls-6 {
        fill: #1d1d1b;
      }

      .cls-9 {
        fill: #ea5254;
      }

      .cls-10 {
        letter-spacing: -.04em;
      }

      .cls-11 {
        letter-spacing: 0em;
      }

      .cls-12 {
        letter-spacing: -.02em;
      }

      .cls-13 {
        letter-spacing: 0em;
      }

      .cls-14 {
        letter-spacing: -.05em;
      }

      .cls-15 {
        letter-spacing: 0em;
      }

      .cls-16 {
        letter-spacing: -.02em;
      }
    </style>
  </defs>
  <g id="Capa_1-2" data-name="Capa 1">
    <g>
      <path class="cls-9" d="M1767.53,107.43l-65.07-12.4-4.25-1.25,20.55-63.82,4.25,1.32,59.92,28.22,10.73,29.96-26.13,17.97ZM1803.06,119.9l-32.12,58.17-2.58,3.41-54.34-39.36,2.58-3.41,45.36-48.35,31.7-.91,9.41,30.45ZM1768.37,70.23l-8.15-65.91V0h66.81v4.32l-8.15,65.91-25.22,19.23-25.29-19.23ZM1825.29,90.36l45.42,48.35,2.58,3.41-54.41,39.36-2.09-3.41-32.54-58.17,9.41-30.45,31.63.91ZM1803.9,59.5l60.33-27.8,4.32-1.32,20.55,63.4-4.32,1.25-65,12.82-26.13-18.39,10.24-29.96Z"/>
      <path class="cls-9" d="M2980.16,107.43l-65.07-12.4-4.25-1.25,20.55-63.82,4.25,1.32,59.92,28.22,10.73,29.96-26.13,17.97ZM3015.69,119.9l-32.12,58.17-2.58,3.41-54.34-39.36,2.58-3.41,45.36-48.35,31.7-.91,9.41,30.45ZM2980.99,70.23l-8.15-65.91V0h66.81v4.32l-8.15,65.91-25.22,19.23-25.29-19.23ZM3037.91,90.36l45.42,48.35,2.58,3.41-54.41,39.36-2.09-3.41-32.54-58.17,9.41-30.45,31.63.91ZM3016.52,59.5l60.33-27.8,4.32-1.32,20.55,63.4-4.32,1.25-65,12.82-26.13-18.39,10.24-29.96Z"/>
      <path class="cls-9" d="M6651.43,107.43l-65.07-12.4-4.25-1.25,20.55-63.82,4.25,1.32,59.92,28.22,10.73,29.96-26.13,17.97ZM6686.96,119.9l-32.12,58.17-2.58,3.41-54.34-39.36,2.58-3.41,45.36-48.35,31.7-.91,9.41,30.45ZM6652.26,70.23l-8.15-65.91V0h66.81v4.32l-8.15,65.91-25.22,19.23-25.29-19.23ZM6709.18,90.36l45.42,48.35,2.58,3.41-54.41,39.36-2.09-3.41-32.54-58.17,9.41-30.45,31.63.91ZM6687.79,59.5l60.33-27.8,4.32-1.32,20.55,63.4-4.32,1.25-65,12.82-26.13-18.39,10.24-29.96Z"/>
      <text class="cls-5" transform="translate(1.67 154.06)"><tspan x="0" y="0">RE</tspan><tspan class="cls-16" x="267.9" y="0">S</tspan><tspan class="cls-1" x="391.8" y="0">T</tspan><tspan class="cls-12" x="511.02" y="0">A</tspan><tspan x="649.64" y="0">URANTES</tspan></text>
      <text class="cls-5" transform="translate(3226.98 154.06)"><tspan class="cls-4" x="0" y="0">C</tspan><tspan class="cls-3" x="135.8" y="0">O</tspan><tspan x="277.51" y="0">MI</tspan><tspan class="cls-8" x="520.28" y="0">D</tspan><tspan class="cls-11" x="652.46" y="0">AS</tspan></text>
      <path class="cls-9" d="M4313.04,107.43l-65.07-12.4-4.25-1.25,20.55-63.82,4.25,1.32,59.92,28.22,10.73,29.96-26.13,17.97ZM4348.57,119.9l-32.12,58.17-2.58,3.41-54.34-39.36,2.58-3.41,45.36-48.35,31.7-.91,9.41,30.45ZM4313.87,70.23l-8.15-65.91V0h66.81v4.32l-8.15,65.91-25.22,19.23-25.29-19.23ZM4370.79,90.36l45.42,48.35,2.58,3.41-54.41,39.36-2.09-3.41-32.54-58.17,9.41-30.45,31.63.91ZM4349.4,59.5l60.33-27.8,4.32-1.32,20.55,63.4-4.32,1.25-65,12.82-26.13-18.39,10.24-29.96Z"/>
      <text class="cls-6" transform="translate(4559.86 154.06)"><tspan x="0" y="0">G</tspan><tspan class="cls-10" x="139.42" y="0">R</tspan><tspan x="269.93" y="0">U</tspan><tspan class="cls-13" x="410.05" y="0">P</tspan><tspan class="cls-7" x="538.97" y="0">O</tspan><tspan x="680.33" y="0">S</tspan></text>
      <path class="cls-9" d="M5520.65,107.43l-65.07-12.4-4.25-1.25,20.55-63.82,4.25,1.32,59.92,28.22,10.73,29.96-26.13,17.97ZM5556.18,119.9l-32.12,58.17-2.58,3.41-54.34-39.36,2.58-3.41,45.36-48.35,31.7-.91,9.41,30.45ZM5521.48,70.23l-8.15-65.91V0h66.81v4.32l-8.15,65.91-25.22,19.23-25.29-19.23ZM5578.4,90.36l45.42,48.35,2.58,3.41-54.41,39.36-2.09-3.41-32.54-58.17,9.41-30.45,31.63.91ZM5557.02,59.5l60.33-27.8,4.32-1.32,20.55,63.4-4.32,1.25-65,12.82-26.13-18.39,10.24-29.96Z"/>
      <text class="cls-5" transform="translate(5767.47 154.06)"><tspan x="0" y="0">M</tspan><tspan class="cls-14" x="176.54" y="0">A</tspan><tspan class="cls-15" x="309.43" y="0">T</tspan><tspan x="437.3" y="0">CH</tspan></text>
      <text class="cls-6" transform="translate(2009.34 150.72)"><tspan x="0" y="0">AMIG</tspan><tspan class="cls-2" x="524.42" y="0">O</tspan><tspan x="665.78" y="0">S</tspan></text>
    </g>
  </g>
</svg>