<?xml version="1.0" encoding="UTF-8"?>
<svg id="Capa_2" data-name="Capa 2" xmlns="http://www.w3.org/2000/svg" viewBox="0 0 8317.09 191.6">
  <defs>
    <style>
      .cls-1 {
        fill: #1d1d1b;
      }

      .cls-2 {
        fill: #ea5254;
      }

      .cls-3 {
        fill: none;
        stroke: #1d1d1b;
        stroke-width: 3.34px;
      }

      .cls-4 {
        fill: #ffeecf;
      }
    </style>
  </defs>
  <g id="Capa_1-2" data-name="Capa 1">
    <g>
      <path class="cls-2" d="M1764.62,117.54l-65.07-12.4-4.25-1.25,20.55-63.82,4.25,1.32,59.92,28.22,10.73,29.96-26.13,17.97ZM1800.15,130.01l-32.12,58.17-2.58,3.41-54.34-39.36,2.58-3.41,45.36-48.35,31.7-.91,9.41,30.45ZM1765.46,80.34l-8.15-65.91v-4.32h66.81v4.32l-8.15,65.91-25.22,19.23-25.29-19.23ZM1822.38,100.47l45.42,48.35,2.58,3.41-54.41,39.36-2.09-3.41-32.54-58.17,9.41-30.45,31.63.91ZM1800.99,69.61l60.33-27.8,4.32-1.32,20.55,63.4-4.32,1.25-65,12.82-26.13-18.39,10.24-29.96Z"/>
      <path class="cls-2" d="M2977.24,117.54l-65.07-12.4-4.25-1.25,20.55-63.82,4.25,1.32,59.92,28.22,10.73,29.96-26.13,17.97ZM3012.78,130.01l-32.12,58.17-2.58,3.41-54.34-39.36,2.58-3.41,45.36-48.35,31.7-.91,9.41,30.45ZM2978.08,80.34l-8.15-65.91v-4.32h66.81v4.32l-8.15,65.91-25.22,19.23-25.29-19.23ZM3035,100.47l45.42,48.35,2.58,3.41-54.41,39.36-2.09-3.41-32.54-58.17,9.41-30.45,31.63.91ZM3013.61,69.61l60.33-27.8,4.32-1.32,20.55,63.4-4.32,1.25-65,12.82-26.13-18.39,10.24-29.96Z"/>
      <path class="cls-2" d="M6648.52,117.54l-65.07-12.4-4.25-1.25,20.55-63.82,4.25,1.32,59.92,28.22,10.73,29.96-26.13,17.97ZM6684.05,130.01l-32.12,58.17-2.58,3.41-54.34-39.36,2.58-3.41,45.36-48.35,31.7-.91,9.41,30.45ZM6649.35,80.34l-8.15-65.91v-4.32h66.81v4.32l-8.15,65.91-25.22,19.23-25.29-19.23ZM6706.27,100.47l45.42,48.35,2.58,3.41-54.41,39.36-2.09-3.41-32.54-58.17,9.41-30.45,31.63.91ZM6684.88,69.61l60.33-27.8,4.32-1.32,20.55,63.4-4.32,1.25-65,12.82-26.13-18.39,10.24-29.96Z"/>
      <path class="cls-2" d="M8064.52,117.54l-65.07-12.4-4.25-1.25,20.55-63.82,4.25,1.32,59.92,28.22,10.73,29.96-26.13,17.97ZM8100.05,130.01l-32.12,58.17-2.58,3.41-54.34-39.36,2.58-3.41,45.36-48.35,31.7-.91,9.41,30.45ZM8065.35,80.34l-8.15-65.91v-4.32h66.81v4.32l-8.15,65.91-25.22,19.23-25.29-19.23ZM8122.27,100.47l45.42,48.35,2.58,3.41-54.41,39.36-2.09-3.41-32.54-58.17,9.41-30.45,31.63.91ZM8100.88,69.61l60.33-27.8,4.32-1.32,20.55,63.4-4.32,1.25-65,12.82-26.13-18.39,10.24-29.96Z"/>
      <g>
        <path class="cls-3" d="M29.1,164.87c-9.35,0-16.7-.24-22.05-.71-1.53-.18-2.81-.76-3.84-1.76-1.03-1-1.54-2.2-1.54-3.62,0-20.75.53-41.71,1.59-62.87,1.06-21.16,2.32-38.92,3.79-53.26.06-1.29.6-2.41,1.63-3.35,1.03-.94,2.19-1.47,3.48-1.59,9.64-.47,31.07-.71,64.29-.71,15.87,0,28.06,2.4,36.55,7.19,8.49,4.79,12.74,11.8,12.74,21.03s-3.79,16.93-11.38,23.28-17.52,10.49-29.81,12.43c-1.88.24-2.82.94-2.82,2.12s1,1.85,3,2.03c6.29.53,12.2,1.98,17.72,4.36,5.53,2.38,10.55,5.67,15.08,9.88,4.53,4.2,8.29,9.6,11.29,16.18,3,6.58,4.91,14.02,5.73,22.31.23,1.59-.19,3-1.28,4.23-1.09,1.23-2.46,1.94-4.1,2.12-5.94.47-14.73.71-26.37.71s-20.67-.24-26.01-.71c-1.59-.18-2.9-.75-3.92-1.72-1.03-.97-1.54-2.19-1.54-3.66,0-10.41-.88-19.77-2.65-28.09-1.76-8.32-4.17-13.77-7.23-16.36-1.12-.59-2.03-.25-2.73,1.01-.71,1.26-1.12,3.16-1.23,5.69-.41,8.99.65,21.31,3.17,36.95.35,1.53-.02,2.9-1.1,4.1-1.09,1.21-2.46,1.9-4.1,2.07-6.29.47-15.08.71-26.37.71ZM62.34,98.65c3-1.23,5.28-2.91,6.83-5.03,1.56-2.12,2.34-4.44,2.34-6.97s-.82-4.28-2.47-5.6c-1.65-1.32-3.82-1.98-6.53-1.98h-.53c-2.29,0-3.44,1.47-3.44,4.41v12.79c0,2.59,1.26,3.38,3.79,2.38Z"/>
        <path class="cls-3" d="M196.47,164.87c-28.69,0-45.97-.24-51.85-.71-1.47-.18-2.73-.81-3.79-1.9-1.06-1.09-1.59-2.39-1.59-3.92.65-50.73,2.44-89.42,5.38-116.05.06-1.29.6-2.35,1.63-3.17,1.03-.82,2.25-1.29,3.66-1.41,6.53-.47,22.34-.71,47.44-.71s40.06.24,48.59.71c1.53.06,2.76.59,3.7,1.59.94,1,1.47,2.23,1.59,3.7.53,8.35.94,21.16,1.23,38.45,0,2.23-.82,3.67-2.47,4.32-1.65.65-3.47.29-5.47-1.06-11.52-6.76-23.34-10.14-35.45-10.14-4.64,0-8,.76-10.05,2.29-2.06,1.53-3.09,3.35-3.09,5.47v.71c0,4.23,5.47,6.35,16.4,6.35,2.76,0,6.5-.13,11.2-.4,4.7-.26,8.44-.43,11.2-.48,1.59-.12,2.95.29,4.1,1.23,1.15.94,1.72,2.2,1.72,3.79l-.18,13.58c0,1.71-.62,2.93-1.85,3.66-1.23.74-2.5.66-3.79-.22-4.94-2.12-9.01-3.57-12.21-4.36-3.21-.79-6.66-1.16-10.36-1.1-5.76.06-9.91.82-12.43,2.29-2.53,1.47-3.79,3.79-3.79,6.97v1.76c0,7.35,6.61,11.02,19.84,11.02,8.23,0,15.06-1.35,20.5-4.06,5.44-2.7,10.65-7.5,15.65-14.37.82-1.18,1.92-1.87,3.31-2.07,1.38-.21,2.63.12,3.75.97,1.12.85,1.76,2.07,1.94,3.66,1.65,14.4,2.67,30.1,3.09,47.09.06,1.53-.4,2.84-1.37,3.92-.97,1.09-2.19,1.72-3.66,1.9-6.35.47-27.19.71-62.52.71Z"/>
        <path class="cls-3" d="M330.24,165.58c-7.7,0-17.03-.68-28-2.03-10.96-1.35-20.24-3.09-27.82-5.2-1-.35-1.87-1.01-2.6-1.98-.74-.97-1.13-2.04-1.19-3.22-.06-1.82-.26-7.51-.62-17.06-.35-9.55-.56-16.8-.62-21.74-.06-2.7.97-4.41,3.09-5.11,2.12-.71,4.03-.15,5.73,1.68,5.41,4.17,11.42,7.32,18.03,9.44,6.61,2.12,13.24,3.17,19.89,3.17,9.05,0,13.7-2.82,13.93-8.47,0-1.76-1.01-3.35-3.04-4.76-2.03-1.41-4.66-2.65-7.89-3.7-3.23-1.06-6.83-2.16-10.8-3.31-3.97-1.15-7.92-2.59-11.86-4.32-3.94-1.73-7.54-3.73-10.8-6-3.26-2.26-5.92-5.25-7.98-8.95-2.06-3.7-3.09-7.94-3.09-12.7,0-12.11,4.61-20.97,13.84-26.59,9.23-5.61,23.22-8.42,41.97-8.42s35.83,1.62,48.94,4.85c2.41.71,3.79,2.29,4.14,4.76,1.82,19.87,2.79,30.86,2.91,32.98.23,3.06-.57,4.97-2.42,5.73-1.85.76-3.63.29-5.33-1.41-4.41-2.47-9.36-4.45-14.86-5.95-5.5-1.5-10.66-2.34-15.48-2.51-5.88-.06-10.51.56-13.89,1.85-3.38,1.29-5.07,3.09-5.07,5.38,0,1.47.73,2.75,2.2,3.84,1.47,1.09,3.42,2.03,5.86,2.82,2.44.79,5.26,1.56,8.47,2.29,3.2.74,6.57,1.56,10.1,2.47,3.53.91,7.05,1.93,10.58,3.04,3.53,1.12,6.89,2.59,10.1,4.41,3.2,1.82,6.03,3.9,8.47,6.22,2.44,2.32,4.38,5.23,5.82,8.73,1.44,3.5,2.16,7.39,2.16,11.68-.06,12.41-5.51,21.86-16.36,28.35-10.85,6.5-26.35,9.74-46.52,9.74Z"/>
        <path class="cls-3" d="M455.37,164.7c-14.17,0-23.6-.24-28.31-.71-1.76-.23-3.16-1.03-4.19-2.38-1.03-1.35-1.4-2.85-1.1-4.5,1.41-9.35,3.28-22.53,5.6-39.55,2.32-17.02,3.72-27.12,4.19-30.29.76-3.17.47-5.6-.88-7.28-1.35-1.68-3.17-2.51-5.47-2.51-2.12,0-4.73.76-7.85,2.29-3.12,1.53-6.57,3.47-10.36,5.82-3.79,2.35-6.45,3.91-7.98,4.67-1.29,1.35-2.76,1.54-4.41.57-1.65-.97-2.47-2.66-2.47-5.07.53-19.16,1.26-33.54,2.2-43.12.18-3.12,1.97-4.76,5.38-4.94,9.76-.47,28.13-.71,55.11-.71s45.35.24,55.11.71c3.41.18,5.2,1.82,5.38,4.94.41,4.29.88,11.85,1.41,22.66.53,10.82.79,17.76.79,20.81,0,2.41-.82,4.04-2.47,4.89-1.65.85-3.12.6-4.41-.75-1.53-.76-4.2-2.32-8.02-4.67-3.82-2.35-7.27-4.29-10.36-5.82-3.09-1.53-5.69-2.29-7.8-2.29-2.23,0-4.01.84-5.33,2.51-1.32,1.68-1.6,4.1-.84,7.28.47,3.17,1.87,13.27,4.19,30.29,2.32,17.02,4.19,30.2,5.6,39.55.29,1.65-.06,3.15-1.06,4.5-1,1.35-2.38,2.15-4.14,2.38-4.59.47-13.76.71-27.51.71Z"/>
        <path class="cls-3" d="M539.06,164.87c-7.41,0-15.23-.24-23.46-.71-1.59-.12-2.87-.76-3.84-1.94-.97-1.18-1.34-2.53-1.1-4.06,2.41-20.22,6.76-41.21,13.05-62.96,6.29-21.75,12.67-39.89,19.14-54.41.76-1.88,2.2-2.91,4.32-3.09,5.52-.47,16.72-.71,33.6-.71s28.31.24,33.95.71c2.12.18,3.56,1.21,4.32,3.09,6.47,14.4,12.84,32.51,19.14,54.32,6.29,21.81,10.64,42.83,13.05,63.05.23,1.53-.12,2.87-1.06,4.01-.94,1.15-2.18,1.81-3.7,1.98-5.94.47-14.4.71-25.4.71s-18.43-.24-23.9-.71c-1.59-.18-2.91-.87-3.97-2.07-1.06-1.2-1.47-2.63-1.23-4.28.65-6.41.88-12.05.71-16.93-.06-3.53-1.18-6.07-3.35-7.63-2.18-1.56-4.79-2.34-7.85-2.34h-1.06c-2.94,0-5.56.81-7.85,2.43-2.29,1.62-3.47,4.13-3.53,7.54,0,6.94.29,12.64.88,17.11.06,1.71-.4,3.12-1.37,4.23-.97,1.12-2.25,1.76-3.84,1.94-5.82.47-14.37.71-25.66.71ZM580.41,111.61h1.23c2,0,3.53-.53,4.59-1.59,1.06-1.06,1.41-2.53,1.06-4.41-.65-7.52-2.06-16.55-4.23-27.07-.35-1.65-.81-2.76-1.37-3.35-.56-.59-1.13-.59-1.72,0s-1.06,1.71-1.41,3.35c-2.06,11.23-3.38,20.25-3.97,27.07-.35,1.88.01,3.35,1.1,4.41,1.09,1.06,2.66,1.59,4.72,1.59Z"/>
        <path class="cls-3" d="M746.9,162.54c-8.11,2.03-17.58,3.04-28.4,3.04s-20.27-1.01-28.35-3.04c-8.08-2.03-15.09-5.22-21.03-9.57-5.94-4.35-10.42-10.17-13.45-17.46-3.03-7.29-4.54-15.99-4.54-26.1-.18-17.28,2.03-39.65,6.61-67.11.18-1.23.75-2.28,1.72-3.13.97-.85,2.1-1.34,3.4-1.46,5.47-.47,12.99-.71,22.57-.71,10.29,0,18.17.24,23.63.71,1.59.12,2.92.76,4.01,1.94,1.09,1.18,1.51,2.53,1.28,4.06-1.82,9.76-3.31,19.9-4.45,30.42-1.15,10.52-1.72,19.4-1.72,26.63,0,5.53.81,10.04,2.43,13.54,1.62,3.5,4.25,5.25,7.89,5.25,6.94,0,10.41-6.26,10.41-18.78,0-13.81-2.03-32.83-6.08-57.05-.24-1.53.16-2.88,1.19-4.06,1.03-1.18,2.37-1.82,4.01-1.94,5.64-.47,13.79-.71,24.43-.71,9.05,0,16.25.24,21.6.71,1.29.12,2.44.59,3.44,1.41,1,.82,1.62,1.88,1.85,3.17,4.47,29.1,6.7,51.47,6.7,67.11-.06,10.11-1.6,18.81-4.63,26.1-3.03,7.29-7.51,13.11-13.45,17.46-5.94,4.35-12.96,7.54-21.08,9.57Z"/>
        <path class="cls-3" d="M818.86,164.87c-9.35,0-16.7-.24-22.05-.71-1.53-.18-2.81-.76-3.84-1.76-1.03-1-1.54-2.2-1.54-3.62,0-20.75.53-41.71,1.59-62.87,1.06-21.16,2.32-38.92,3.79-53.26.06-1.29.6-2.41,1.63-3.35,1.03-.94,2.19-1.47,3.48-1.59,9.64-.47,31.07-.71,64.29-.71,15.87,0,28.06,2.4,36.55,7.19,8.49,4.79,12.74,11.8,12.74,21.03s-3.79,16.93-11.38,23.28-17.52,10.49-29.81,12.43c-1.88.24-2.82.94-2.82,2.12s1,1.85,3,2.03c6.29.53,12.2,1.98,17.72,4.36,5.53,2.38,10.55,5.67,15.08,9.88,4.53,4.2,8.29,9.6,11.29,16.18,3,6.58,4.91,14.02,5.73,22.31.23,1.59-.19,3-1.28,4.23-1.09,1.23-2.46,1.94-4.1,2.12-5.94.47-14.73.71-26.37.71s-20.67-.24-26.01-.71c-1.59-.18-2.9-.75-3.92-1.72-1.03-.97-1.54-2.19-1.54-3.66,0-10.41-.88-19.77-2.65-28.09-1.76-8.32-4.17-13.77-7.23-16.36-1.12-.59-2.03-.25-2.73,1.01-.71,1.26-1.12,3.16-1.23,5.69-.41,8.99.65,21.31,3.17,36.95.35,1.53-.02,2.9-1.1,4.1-1.09,1.21-2.46,1.9-4.1,2.07-6.29.47-15.08.71-26.37.71ZM852.1,98.65c3-1.23,5.28-2.91,6.83-5.03,1.56-2.12,2.34-4.44,2.34-6.97s-.82-4.28-2.47-5.6c-1.65-1.32-3.82-1.98-6.53-1.98h-.53c-2.29,0-3.44,1.47-3.44,4.41v12.79c0,2.59,1.26,3.38,3.79,2.38Z"/>
        <path class="cls-3" d="M955.37,164.87c-7.41,0-15.23-.24-23.46-.71-1.59-.12-2.87-.76-3.84-1.94-.97-1.18-1.34-2.53-1.1-4.06,2.41-20.22,6.76-41.21,13.05-62.96,6.29-21.75,12.67-39.89,19.14-54.41.76-1.88,2.2-2.91,4.32-3.09,5.52-.47,16.72-.71,33.6-.71s28.31.24,33.95.71c2.12.18,3.56,1.21,4.32,3.09,6.47,14.4,12.84,32.51,19.14,54.32,6.29,21.81,10.64,42.83,13.05,63.05.23,1.53-.12,2.87-1.06,4.01-.94,1.15-2.18,1.81-3.7,1.98-5.94.47-14.4.71-25.4.71s-18.43-.24-23.9-.71c-1.59-.18-2.91-.87-3.97-2.07-1.06-1.2-1.47-2.63-1.23-4.28.65-6.41.88-12.05.71-16.93-.06-3.53-1.18-6.07-3.35-7.63-2.18-1.56-4.79-2.34-7.85-2.34h-1.06c-2.94,0-5.56.81-7.85,2.43-2.29,1.62-3.47,4.13-3.53,7.54,0,6.94.29,12.64.88,17.11.06,1.71-.4,3.12-1.37,4.23-.97,1.12-2.25,1.76-3.84,1.94-5.82.47-14.37.71-25.66.71ZM996.72,111.61h1.23c2,0,3.53-.53,4.59-1.59,1.06-1.06,1.41-2.53,1.06-4.41-.65-7.52-2.06-16.55-4.23-27.07-.35-1.65-.81-2.76-1.37-3.35-.56-.59-1.13-.59-1.72,0s-1.06,1.71-1.41,3.35c-2.06,11.23-3.38,20.25-3.97,27.07-.35,1.88.01,3.35,1.1,4.41,1.09,1.06,2.66,1.59,4.72,1.59Z"/>
        <path class="cls-3" d="M1186.05,165.58c-5.11,0-9.95-1.19-14.51-3.57-4.56-2.38-8.39-5.34-11.51-8.86-3.12-3.53-6.12-7.38-9-11.55-2.88-4.17-5.32-8.02-7.32-11.55-2-3.53-4.09-6.48-6.26-8.86-2.18-2.38-4.2-3.57-6.08-3.57-3.29,0-4.94,4.38-4.94,13.14,0,2.18.16,4.91.48,8.2.32,3.29.75,6.92,1.28,10.89.53,3.97.85,6.57.97,7.8.23,1.88-.18,3.37-1.23,4.45-1.06,1.09-2.5,1.72-4.32,1.9-4.35.59-12.43.88-24.25.88-10.82,0-18.34-.29-22.58-.88-1.59-.18-2.91-.76-3.97-1.76-1.06-1-1.59-2.2-1.59-3.62,0-38.74,1.85-77.45,5.56-116.14.18-2.59,1.94-4.17,5.29-4.76,2.59-.47,7.52-.71,14.81-.71,4.06,0,8.26.24,12.61.71,2.88.24,5.17.87,6.88,1.9,1.7,1.03,3.67,2.93,5.91,5.69.41.82,1.23,2.41,2.47,4.76,1.23,2.35,2.34,4.41,3.31,6.17.97,1.76,2.19,3.9,3.66,6.39,1.47,2.5,2.84,4.66,4.1,6.48,1.26,1.82,2.6,3.59,4.01,5.29,1.41,1.71,2.79,3.01,4.14,3.92,1.35.91,2.61,1.37,3.79,1.37,1.71,0,2.81-2.1,3.31-6.3.5-4.2.5-8.94,0-14.2-.5-5.26-1.25-10.13-2.25-14.59-.41-1.59-.09-3.06.97-4.41,1.06-1.35,2.5-2.17,4.32-2.47,6.7-.47,13.08-.71,19.14-.71,8.7,0,15.43.24,20.19.71,1.53.18,2.81.68,3.84,1.5,1.03.82,1.63,1.91,1.81,3.26,3.06,33.57,4.79,66.96,5.2,100.18.06,2.94-.18,5.66-.71,8.16-.53,2.5-1.43,4.91-2.69,7.23-1.27,2.32-3.16,4.16-5.69,5.51-2.53,1.35-5.59,2.03-9.17,2.03Z"/>
        <path class="cls-3" d="M1271.94,164.7c-14.17,0-23.6-.24-28.31-.71-1.76-.23-3.16-1.03-4.19-2.38-1.03-1.35-1.4-2.85-1.1-4.5,1.41-9.35,3.28-22.53,5.6-39.55,2.32-17.02,3.72-27.12,4.19-30.29.76-3.17.47-5.6-.88-7.28-1.35-1.68-3.17-2.51-5.47-2.51-2.12,0-4.73.76-7.85,2.29-3.12,1.53-6.57,3.47-10.36,5.82-3.79,2.35-6.45,3.91-7.98,4.67-1.29,1.35-2.76,1.54-4.41.57-1.65-.97-2.47-2.66-2.47-5.07.53-19.16,1.26-33.54,2.21-43.12.18-3.12,1.97-4.76,5.38-4.94,9.76-.47,28.13-.71,55.11-.71s45.35.24,55.11.71c3.41.18,5.2,1.82,5.38,4.94.41,4.29.88,11.85,1.41,22.66.53,10.82.79,17.76.79,20.81,0,2.41-.82,4.04-2.47,4.89-1.65.85-3.12.6-4.41-.75-1.53-.76-4.2-2.32-8.02-4.67-3.82-2.35-7.28-4.29-10.36-5.82-3.09-1.53-5.69-2.29-7.8-2.29-2.23,0-4.01.84-5.33,2.51-1.32,1.68-1.6,4.1-.84,7.28.47,3.17,1.87,13.27,4.19,30.29,2.32,17.02,4.19,30.2,5.6,39.55.29,1.65-.06,3.15-1.06,4.5-1,1.35-2.38,2.15-4.14,2.38-4.58.47-13.76.71-27.51.71Z"/>
        <path class="cls-3" d="M1395.84,164.87c-28.69,0-45.97-.24-51.85-.71-1.47-.18-2.73-.81-3.79-1.9-1.06-1.09-1.59-2.39-1.59-3.92.65-50.73,2.44-89.42,5.38-116.05.06-1.29.6-2.35,1.63-3.17,1.03-.82,2.25-1.29,3.66-1.41,6.53-.47,22.34-.71,47.44-.71s40.06.24,48.59.71c1.53.06,2.76.59,3.7,1.59.94,1,1.47,2.23,1.59,3.7.53,8.35.94,21.16,1.23,38.45,0,2.23-.82,3.67-2.47,4.32-1.65.65-3.47.29-5.47-1.06-11.52-6.76-23.34-10.14-35.45-10.14-4.65,0-8,.76-10.05,2.29-2.06,1.53-3.09,3.35-3.09,5.47v.71c0,4.23,5.47,6.35,16.4,6.35,2.76,0,6.5-.13,11.2-.4,4.7-.26,8.43-.43,11.2-.48,1.59-.12,2.95.29,4.1,1.23,1.15.94,1.72,2.2,1.72,3.79l-.18,13.58c0,1.71-.62,2.93-1.85,3.66-1.24.74-2.5.66-3.79-.22-4.94-2.12-9.01-3.57-12.21-4.36-3.21-.79-6.66-1.16-10.36-1.1-5.76.06-9.91.82-12.43,2.29-2.53,1.47-3.79,3.79-3.79,6.97v1.76c0,7.35,6.61,11.02,19.84,11.02,8.23,0,15.06-1.35,20.5-4.06,5.44-2.7,10.66-7.5,15.65-14.37.82-1.18,1.92-1.87,3.31-2.07,1.38-.21,2.63.12,3.75.97,1.12.85,1.76,2.07,1.94,3.66,1.64,14.4,2.67,30.1,3.09,47.09.06,1.53-.4,2.84-1.37,3.92-.97,1.09-2.19,1.72-3.66,1.9-6.35.47-27.19.71-62.52.71Z"/>
        <path class="cls-3" d="M1529.61,165.58c-7.7,0-17.04-.68-28-2.03-10.96-1.35-20.24-3.09-27.82-5.2-1-.35-1.87-1.01-2.6-1.98s-1.13-2.04-1.19-3.22c-.06-1.82-.26-7.51-.62-17.06-.35-9.55-.56-16.8-.62-21.74-.06-2.7.97-4.41,3.09-5.11,2.12-.71,4.03-.15,5.73,1.68,5.41,4.17,11.42,7.32,18.03,9.44,6.61,2.12,13.24,3.17,19.89,3.17,9.05,0,13.7-2.82,13.93-8.47,0-1.76-1.01-3.35-3.04-4.76s-4.66-2.65-7.89-3.7c-3.23-1.06-6.83-2.16-10.8-3.31-3.97-1.15-7.92-2.59-11.86-4.32-3.94-1.73-7.54-3.73-10.8-6-3.26-2.26-5.92-5.25-7.98-8.95-2.06-3.7-3.09-7.94-3.09-12.7,0-12.11,4.61-20.97,13.84-26.59,9.23-5.61,23.22-8.42,41.97-8.42s35.83,1.62,48.94,4.85c2.41.71,3.79,2.29,4.14,4.76,1.82,19.87,2.79,30.86,2.91,32.98.23,3.06-.57,4.97-2.42,5.73-1.85.76-3.63.29-5.33-1.41-4.41-2.47-9.36-4.45-14.86-5.95-5.5-1.5-10.66-2.34-15.48-2.51-5.88-.06-10.51.56-13.89,1.85-3.38,1.29-5.07,3.09-5.07,5.38,0,1.47.73,2.75,2.2,3.84,1.47,1.09,3.42,2.03,5.86,2.82,2.44.79,5.26,1.56,8.47,2.29,3.2.74,6.57,1.56,10.1,2.47,3.53.91,7.05,1.93,10.58,3.04,3.53,1.12,6.89,2.59,10.1,4.41,3.2,1.82,6.03,3.9,8.47,6.22,2.44,2.32,4.38,5.23,5.82,8.73,1.44,3.5,2.16,7.39,2.16,11.68-.06,12.41-5.51,21.86-16.36,28.35-10.85,6.5-26.35,9.74-46.52,9.74Z"/>
      </g>
      <g>
        <path class="cls-3" d="M3300.26,165.58c-9.11,0-17.36-.62-24.74-1.85s-14.21-3.31-20.5-6.22c-6.29-2.91-11.57-6.61-15.83-11.11-4.26-4.5-7.58-10.13-9.96-16.89-2.38-6.76-3.57-14.52-3.57-23.28,0-13.93,3.16-26.19,9.48-36.77,6.32-10.58,15.22-18.75,26.72-24.51,11.49-5.76,24.74-8.64,39.73-8.64,8.82,0,16.3.6,22.44,1.81,6.14,1.21,11.95,3.13,17.42,5.78,2.47,1.35,3.38,3.53,2.73,6.53-.47,3.35-1.22,8.99-2.25,16.93-1.03,7.94-1.78,13.61-2.25,17.02-.24,2.12-1.06,3.43-2.47,3.92-1.41.5-2.94.1-4.59-1.19-8.47-5.94-17.49-8.91-27.07-8.91-7.76,0-13.49,2.03-17.2,6.08s-5.56,10.17-5.56,18.34c0,5.29,2.21,9.47,6.61,12.52,4.41,3.06,10.61,4.59,18.61,4.59,7.52,0,14.45-1.07,20.77-3.22,6.32-2.15,12.89-5.83,19.71-11.07,1.29-1.41,2.78-1.79,4.45-1.15,1.68.65,2.6,2.29,2.78,4.94.23,4,.97,18.22,2.21,42.68,0,2.59-1.15,4.38-3.44,5.38-6.29,2.12-14.52,4.03-24.69,5.73-10.17,1.7-20.02,2.56-29.54,2.56Z"/>
        <path class="cls-3" d="M3430.85,165.58c-8.58,0-16.3-.59-23.15-1.76s-13.21-3.17-19.09-6c-5.88-2.82-10.77-6.45-14.68-10.89-3.91-4.44-6.97-10.04-9.17-16.8-2.21-6.76-3.31-14.55-3.31-23.37,0-10.93,1.68-20.82,5.03-29.67,3.35-8.85,8.05-16.24,14.11-22.18,6.05-5.94,13.36-10.51,21.91-13.71,8.55-3.2,18-4.83,28.35-4.89,13.81,0,25.93,2.76,36.33,8.29,10.41,5.53,18.5,13.62,24.29,24.29,5.79,10.67,8.69,23.3,8.69,37.87,0,10.99-1.63,20.36-4.89,28.09-3.26,7.73-8.04,13.82-14.33,18.25-6.29,4.44-13.51,7.63-21.65,9.57-8.14,1.94-17.62,2.91-28.44,2.91ZM3430.85,122.1c8.05,0,12.08-5.85,12.08-17.55,0-6.82-1.09-12.64-3.26-17.46-2.18-4.82-5.12-7.23-8.82-7.23s-6.64,2.41-8.82,7.23c-2.18,4.82-3.26,10.64-3.26,17.46,0,11.7,4.03,17.55,12.08,17.55Z"/>
        <path class="cls-3" d="M3532.09,164.87c-11.41,0-19.11-.24-23.1-.71-1.53-.18-2.81-.81-3.84-1.9-1.03-1.09-1.54-2.39-1.54-3.92.76-33.1,4.61-71.78,11.55-116.05.18-1.29.75-2.35,1.72-3.17.97-.82,2.13-1.29,3.48-1.41,5.64-.47,13.9-.71,24.78-.71s18.58.24,22.57.71c4.47.53,7.23,3.12,8.29,7.76,1.53,8.23,3.14,16.26,4.85,24.07,2.7,11.05,5.79,16.58,9.26,16.58,3.17,0,5.94-5.06,8.29-15.17.94-3.7,2.04-8.6,3.31-14.68,1.26-6.08,2.01-9.69,2.25-10.8,1.06-4.64,3.76-7.23,8.11-7.76,4-.47,11.58-.71,22.75-.71,9.99,0,18.19.24,24.6.71,1.41.12,2.6.57,3.57,1.37.97.79,1.57,1.87,1.81,3.22,6.76,43.39,10.55,82.07,11.38,116.05.06,1.53-.4,2.84-1.37,3.92-.97,1.09-2.25,1.72-3.84,1.9-4,.47-11.64.71-22.93.71-13.11,0-21.72-.24-25.84-.71-1.53-.18-2.76-.79-3.7-1.85-.94-1.06-1.32-2.5-1.15-4.32,1.64-13.29,2.47-25.19,2.47-35.71,0-6.47-.47-11.46-1.41-14.99-.94-3.53-2.2-5.29-3.79-5.29-.65,0-1.26.19-1.85.57-.59.38-1.15,1.07-1.68,2.07-.53,1-.98,1.93-1.37,2.78-.38.85-.84,2.22-1.37,4.1-.53,1.88-.94,3.4-1.23,4.54-.29,1.15-.74,2.98-1.32,5.51-1.88,9.76-2.85,14.93-2.91,15.52-1.12,4.76-2.73,8.2-4.85,10.32-2.12,2.12-4.91,3.17-8.38,3.17-3.23,0-5.86-1.13-7.89-3.4-2.03-2.26-3.6-5.63-4.72-10.1-1.53-7.82-2.68-13.37-3.44-16.67-1.35-6-2.65-10.41-3.88-13.23-1.23-2.82-2.76-4.23-4.58-4.23-1.53,0-2.76,1.79-3.7,5.38-.94,3.59-1.38,8.58-1.32,14.99,0,6.47.76,18.02,2.29,34.66.18,1.82-.19,3.26-1.1,4.32-.91,1.06-2.1,1.68-3.57,1.85-4.12.47-12.67.71-25.66.71Z"/>
        <path class="cls-3" d="M3711.36,164.87c-11.17,0-19.43-.24-24.78-.71-1.59-.18-2.91-.76-3.97-1.76-1.06-1-1.59-2.26-1.59-3.79,0-48.91,1.56-87.57,4.67-115.96.18-1.35.73-2.47,1.67-3.35s2.12-1.41,3.53-1.59c4.76-.47,11.58-.71,20.46-.71s15.43.24,20.37.71c1.47.18,2.65.71,3.53,1.59s1.41,2,1.59,3.35c3.12,28.39,4.67,67.05,4.67,115.96,0,1.47-.54,2.72-1.63,3.75-1.09,1.03-2.42,1.63-4.01,1.81-5.17.47-13.35.71-24.51.71Z"/>
        <path class="cls-3" d="M3807.92,165.58c-25.04,0-43.53-.47-55.47-1.41-1.53-.18-2.78-.84-3.75-1.98-.97-1.15-1.46-2.48-1.46-4.01,0-40.62,1.73-79.19,5.2-115.7.18-1.35.75-2.47,1.72-3.35.97-.88,2.22-1.35,3.75-1.41,7.99-.47,22.99-.71,44.97-.71,11.34,0,21.69,1.57,31.04,4.72,9.35,3.15,17.39,7.67,24.12,13.58,6.73,5.91,11.95,13.35,15.65,22.31,3.7,8.97,5.56,19.03,5.56,30.2,0,10.58-1.53,19.59-4.59,27.03-3.06,7.44-7.69,13.4-13.89,17.9-6.2,4.5-13.61,7.76-22.22,9.79-8.61,2.03-18.83,3.04-30.64,3.04ZM3807.92,119.37h.88c4.58,0,8.29-1.2,11.11-3.62,2.82-2.41,4.23-5.97,4.23-10.67,0-8.23-1.37-14.56-4.1-19-2.73-4.44-6.54-6.66-11.42-6.66h-.71c-1.24,0-2.24.37-3,1.1-.76.74-1.15,1.78-1.15,3.13-.24,10.35-.24,20.69,0,31.04,0,1.41.4,2.54,1.19,3.4.79.85,1.78,1.28,2.95,1.28Z"/>
        <path class="cls-3" d="M3905.81,164.87c-7.41,0-15.23-.24-23.46-.71-1.59-.12-2.87-.76-3.84-1.94-.97-1.18-1.34-2.53-1.1-4.06,2.41-20.22,6.76-41.21,13.05-62.96,6.29-21.75,12.67-39.89,19.14-54.41.76-1.88,2.21-2.91,4.32-3.09,5.53-.47,16.72-.71,33.6-.71s28.31.24,33.95.71c2.12.18,3.56,1.21,4.32,3.09,6.47,14.4,12.84,32.51,19.14,54.32,6.29,21.81,10.64,42.83,13.05,63.05.23,1.53-.12,2.87-1.06,4.01-.94,1.15-2.18,1.81-3.7,1.98-5.94.47-14.4.71-25.4.71s-18.43-.24-23.9-.71c-1.59-.18-2.91-.87-3.97-2.07-1.06-1.2-1.47-2.63-1.23-4.28.65-6.41.88-12.05.71-16.93-.06-3.53-1.18-6.07-3.35-7.63-2.18-1.56-4.79-2.34-7.85-2.34h-1.06c-2.94,0-5.56.81-7.85,2.43-2.29,1.62-3.47,4.13-3.53,7.54,0,6.94.29,12.64.88,17.11.06,1.71-.4,3.12-1.37,4.23-.97,1.12-2.25,1.76-3.84,1.94-5.82.47-14.37.71-25.66.71ZM3947.16,111.61h1.23c2,0,3.53-.53,4.58-1.59,1.06-1.06,1.41-2.53,1.06-4.41-.65-7.52-2.06-16.55-4.23-27.07-.35-1.65-.81-2.76-1.37-3.35-.56-.59-1.13-.59-1.72,0-.59.59-1.06,1.71-1.41,3.35-2.06,11.23-3.38,20.25-3.97,27.07-.35,1.88.01,3.35,1.1,4.41,1.09,1.06,2.66,1.59,4.72,1.59Z"/>
        <path class="cls-3" d="M4082.35,165.58c-7.7,0-17.04-.68-28-2.03-10.96-1.35-20.24-3.09-27.82-5.2-1-.35-1.87-1.01-2.6-1.98s-1.13-2.04-1.19-3.22c-.06-1.82-.26-7.51-.62-17.06-.35-9.55-.56-16.8-.62-21.74-.06-2.7.97-4.41,3.09-5.11,2.12-.71,4.03-.15,5.73,1.68,5.41,4.17,11.42,7.32,18.03,9.44,6.61,2.12,13.24,3.17,19.89,3.17,9.05,0,13.7-2.82,13.93-8.47,0-1.76-1.01-3.35-3.04-4.76s-4.66-2.65-7.89-3.7c-3.23-1.06-6.83-2.16-10.8-3.31-3.97-1.15-7.92-2.59-11.86-4.32-3.94-1.73-7.54-3.73-10.8-6-3.26-2.26-5.92-5.25-7.98-8.95-2.06-3.7-3.09-7.94-3.09-12.7,0-12.11,4.61-20.97,13.84-26.59,9.23-5.61,23.22-8.42,41.97-8.42s35.83,1.62,48.94,4.85c2.41.71,3.79,2.29,4.14,4.76,1.82,19.87,2.79,30.86,2.91,32.98.23,3.06-.57,4.97-2.42,5.73-1.85.76-3.63.29-5.33-1.41-4.41-2.47-9.36-4.45-14.86-5.95-5.5-1.5-10.66-2.34-15.48-2.51-5.88-.06-10.51.56-13.89,1.85-3.38,1.29-5.07,3.09-5.07,5.38,0,1.47.73,2.75,2.2,3.84,1.47,1.09,3.42,2.03,5.86,2.82,2.44.79,5.26,1.56,8.47,2.29,3.2.74,6.57,1.56,10.1,2.47,3.53.91,7.05,1.93,10.58,3.04,3.53,1.12,6.89,2.59,10.1,4.41,3.2,1.82,6.03,3.9,8.47,6.22,2.44,2.32,4.38,5.23,5.82,8.73,1.44,3.5,2.16,7.39,2.16,11.68-.06,12.41-5.51,21.86-16.36,28.35-10.85,6.5-26.35,9.74-46.52,9.74Z"/>
      </g>
      <path class="cls-2" d="M4310.13,117.54l-65.07-12.4-4.25-1.25,20.55-63.82,4.25,1.32,59.92,28.22,10.73,29.96-26.13,17.97ZM4345.66,130.01l-32.12,58.17-2.58,3.41-54.34-39.36,2.58-3.41,45.36-48.35,31.7-.91,9.41,30.45ZM4310.96,80.34l-8.15-65.91v-4.32h66.81v4.32l-8.15,65.91-25.22,19.23-25.29-19.23ZM4367.88,100.47l45.42,48.35,2.58,3.41-54.41,39.36-2.09-3.41-32.54-58.17,9.41-30.45,31.63.91ZM4346.49,69.61l60.33-27.8,4.32-1.32,20.55,63.4-4.32,1.25-65,12.82-26.13-18.39,10.24-29.96Z"/>
      <g>
        <path class="cls-1" d="M4610.56,165.58c-16.7,0-29.54-4.76-38.54-14.29-8.99-9.52-13.49-24.25-13.49-44.18,0-13.93,3.19-26.26,9.57-36.99,6.38-10.73,15.34-19.05,26.9-24.96s24.76-8.86,39.64-8.86c16.7,0,31.19,2.18,43.47,6.53,2.47,1.29,3.5,3.32,3.09,6.08-.06.24-.65,5.14-1.76,14.73-1.12,9.58-1.91,16.11-2.38,19.58-.24,1.88-1.09,3.09-2.56,3.62-1.47.53-2.85.35-4.14-.53-8.35-4.41-18.34-6.61-29.98-6.61-7.82,0-13.83,2.22-18.03,6.66-4.2,4.44-6.31,11.19-6.31,20.24,0,10.82,3.91,16.23,11.73,16.23,2.47,0,4.78-1.23,6.92-3.7,2.14-2.47,3.22-5.82,3.22-10.05,0-4-.56-6.94-1.68-8.82-.65-1.65-.65-3.07,0-4.28.65-1.2,1.79-1.84,3.44-1.9,7.05-.53,22.34-1.53,45.86-3,1.65-.06,3.03.41,4.14,1.41,1.12,1,1.73,2.26,1.85,3.79,1.41,17.7,2.12,38.48,2.12,62.35,0,1.53-.5,2.79-1.5,3.79-1,1-2.29,1.59-3.88,1.76-2.35.23-8.61.35-18.78.35s-16.43-.12-18.78-.35c-1.82-.29-3.25-.88-4.28-1.76-1.03-.88-1.43-2.03-1.19-3.44.76-7.29,1.09-12.49.97-15.61.12-2.94-.41-4.45-1.59-4.54-1.18-.09-2.35,1.31-3.53,4.19-5.82,15.05-15.99,22.57-30.51,22.57Z"/>
        <path class="cls-1" d="M4726.7,164.87c-9.35,0-16.7-.24-22.05-.71-1.53-.18-2.81-.76-3.84-1.76-1.03-1-1.54-2.2-1.54-3.62,0-20.75.53-41.71,1.59-62.87,1.06-21.16,2.32-38.92,3.79-53.26.06-1.29.6-2.41,1.63-3.35,1.03-.94,2.19-1.47,3.48-1.59,9.64-.47,31.07-.71,64.29-.71,15.87,0,28.06,2.4,36.55,7.19,8.5,4.79,12.74,11.8,12.74,21.03s-3.79,16.93-11.38,23.28-17.52,10.49-29.81,12.43c-1.88.24-2.82.94-2.82,2.12s1,1.85,3,2.03c6.29.53,12.2,1.98,17.72,4.36,5.52,2.38,10.55,5.67,15.08,9.88,4.53,4.2,8.29,9.6,11.29,16.18,3,6.58,4.91,14.02,5.73,22.31.23,1.59-.19,3-1.28,4.23-1.09,1.23-2.46,1.94-4.1,2.12-5.94.47-14.73.71-26.37.71s-20.67-.24-26.01-.71c-1.59-.18-2.9-.75-3.92-1.72-1.03-.97-1.54-2.19-1.54-3.66,0-10.41-.88-19.77-2.65-28.09-1.76-8.32-4.17-13.77-7.23-16.36-1.12-.59-2.03-.25-2.73,1.01-.71,1.26-1.12,3.16-1.23,5.69-.41,8.99.65,21.31,3.17,36.95.35,1.53-.02,2.9-1.1,4.1-1.09,1.21-2.46,1.9-4.1,2.07-6.29.47-15.08.71-26.37.71ZM4759.95,98.65c3-1.23,5.28-2.91,6.83-5.03,1.56-2.12,2.34-4.44,2.34-6.97s-.82-4.28-2.47-5.6c-1.65-1.32-3.82-1.98-6.53-1.98h-.53c-2.29,0-3.44,1.47-3.44,4.41v12.79c0,2.59,1.26,3.38,3.79,2.38Z"/>
        <path class="cls-1" d="M4925.38,162.54c-8.11,2.03-17.58,3.04-28.39,3.04s-20.27-1.01-28.35-3.04c-8.08-2.03-15.09-5.22-21.03-9.57-5.94-4.35-10.42-10.17-13.45-17.46-3.03-7.29-4.54-15.99-4.54-26.1-.18-17.28,2.03-39.65,6.61-67.11.18-1.23.75-2.28,1.72-3.13.97-.85,2.1-1.34,3.39-1.46,5.47-.47,12.99-.71,22.58-.71,10.29,0,18.17.24,23.63.71,1.59.12,2.92.76,4.01,1.94,1.09,1.18,1.51,2.53,1.28,4.06-1.82,9.76-3.31,19.9-4.45,30.42-1.15,10.52-1.72,19.4-1.72,26.63,0,5.53.81,10.04,2.42,13.54,1.62,3.5,4.25,5.25,7.89,5.25,6.94,0,10.41-6.26,10.41-18.78,0-13.81-2.03-32.83-6.08-57.05-.24-1.53.16-2.88,1.19-4.06,1.03-1.18,2.37-1.82,4.01-1.94,5.64-.47,13.79-.71,24.43-.71,9.05,0,16.25.24,21.6.71,1.29.12,2.44.59,3.44,1.41,1,.82,1.62,1.88,1.85,3.17,4.47,29.1,6.7,51.47,6.7,67.11-.06,10.11-1.6,18.81-4.63,26.1-3.03,7.29-7.51,13.11-13.45,17.46-5.94,4.35-12.96,7.54-21.08,9.57Z"/>
        <path class="cls-1" d="M5000.77,164.87c-10.99,0-19.55-.24-25.66-.71-1.53-.18-2.78-.75-3.75-1.72s-1.46-2.13-1.46-3.48c.06-21.46.59-42.81,1.59-64.06,1-21.25,2.21-38.79,3.62-52.6.18-1.35.76-2.48,1.76-3.4,1-.91,2.17-1.42,3.53-1.54,15.81-.94,37.04-1.41,63.67-1.41,16.05,0,28.62,3.17,37.7,9.52s13.62,15.46,13.62,27.34c0,7.29-1.38,13.93-4.14,19.93-2.76,6-6.38,10.91-10.85,14.73-4.47,3.82-9.57,6.97-15.3,9.44-5.73,2.47-11.52,4.13-17.37,4.98-5.85.85-11.57,1.04-17.15.57-1.47-.06-2.5.38-3.09,1.32-.59.94-.82,2.56-.71,4.85.12,4.06.98,9.58,2.6,16.58,1.62,7,2.54,11.2,2.78,12.61.23,1.53-.13,2.9-1.1,4.1-.97,1.21-2.28,1.96-3.92,2.25-4.35.47-13.14.71-26.37.71ZM5030.05,99.35c3.58-.35,6.32-1.7,8.2-4.06,1.88-2.35,2.82-4.91,2.82-7.67,0-3-.94-5.32-2.82-6.97-1.88-1.65-4.5-2.47-7.85-2.47h-.53c-.88,0-1.65.26-2.29.79-.65.53-.97,1.23-.97,2.12v15.34c0,.88.35,1.62,1.06,2.2.71.59,1.5.82,2.38.71Z"/>
        <path class="cls-1" d="M5166.91,165.58c-8.58,0-16.3-.59-23.15-1.76s-13.21-3.17-19.09-6c-5.88-2.82-10.77-6.45-14.68-10.89-3.91-4.44-6.97-10.04-9.17-16.8-2.21-6.76-3.31-14.55-3.31-23.37,0-10.93,1.68-20.82,5.03-29.67,3.35-8.85,8.05-16.24,14.11-22.18,6.05-5.94,13.36-10.51,21.91-13.71,8.55-3.2,18-4.83,28.35-4.89,13.81,0,25.93,2.76,36.33,8.29,10.41,5.53,18.5,13.62,24.29,24.29,5.79,10.67,8.69,23.3,8.69,37.87,0,10.99-1.63,20.36-4.89,28.09-3.26,7.73-8.04,13.82-14.33,18.25-6.29,4.44-13.51,7.63-21.65,9.57-8.14,1.94-17.62,2.91-28.44,2.91ZM5166.91,122.1c8.05,0,12.08-5.85,12.08-17.55,0-6.82-1.09-12.64-3.26-17.46-2.18-4.82-5.12-7.23-8.82-7.23s-6.64,2.41-8.82,7.23c-2.18,4.82-3.26,10.64-3.26,17.46,0,11.7,4.03,17.55,12.08,17.55Z"/>
        <path class="cls-1" d="M5300.86,165.58c-7.7,0-17.04-.68-28-2.03-10.96-1.35-20.24-3.09-27.82-5.2-1-.35-1.87-1.01-2.6-1.98s-1.13-2.04-1.19-3.22c-.06-1.82-.26-7.51-.62-17.06-.35-9.55-.56-16.8-.62-21.74-.06-2.7.97-4.41,3.09-5.11,2.12-.71,4.03-.15,5.73,1.68,5.41,4.17,11.42,7.32,18.03,9.44,6.61,2.12,13.24,3.17,19.89,3.17,9.05,0,13.7-2.82,13.93-8.47,0-1.76-1.01-3.35-3.04-4.76s-4.66-2.65-7.89-3.7c-3.23-1.06-6.83-2.16-10.8-3.31-3.97-1.15-7.92-2.59-11.86-4.32-3.94-1.73-7.54-3.73-10.8-6-3.26-2.26-5.92-5.25-7.98-8.95-2.06-3.7-3.09-7.94-3.09-12.7,0-12.11,4.61-20.97,13.84-26.59,9.23-5.61,23.22-8.42,41.97-8.42s35.83,1.62,48.94,4.85c2.41.71,3.79,2.29,4.14,4.76,1.82,19.87,2.79,30.86,2.91,32.98.23,3.06-.57,4.97-2.42,5.73-1.85.76-3.63.29-5.33-1.41-4.41-2.47-9.36-4.45-14.86-5.95-5.5-1.5-10.66-2.34-15.48-2.51-5.88-.06-10.51.56-13.89,1.85-3.38,1.29-5.07,3.09-5.07,5.38,0,1.47.73,2.75,2.2,3.84,1.47,1.09,3.42,2.03,5.86,2.82,2.44.79,5.26,1.56,8.47,2.29,3.2.74,6.57,1.56,10.1,2.47,3.53.91,7.05,1.93,10.58,3.04,3.53,1.12,6.89,2.59,10.1,4.41,3.2,1.82,6.03,3.9,8.47,6.22,2.44,2.32,4.38,5.23,5.82,8.73,1.44,3.5,2.16,7.39,2.16,11.68-.06,12.41-5.51,21.86-16.36,28.35-10.85,6.5-26.35,9.74-46.52,9.74Z"/>
      </g>
      <g>
        <path class="cls-1" d="M6937.72,164.87c-10.99,0-19.55-.24-25.66-.71-1.53-.18-2.78-.75-3.75-1.72s-1.46-2.13-1.46-3.48c.06-21.46.59-42.81,1.59-64.06,1-21.25,2.21-38.79,3.62-52.6.18-1.35.76-2.48,1.76-3.4,1-.91,2.17-1.42,3.53-1.54,15.81-.94,37.04-1.41,63.67-1.41,16.05,0,28.62,3.17,37.7,9.52s13.62,15.46,13.62,27.34c0,7.29-1.38,13.93-4.14,19.93-2.76,6-6.38,10.91-10.85,14.73-4.47,3.82-9.57,6.97-15.3,9.44-5.73,2.47-11.52,4.13-17.37,4.98-5.85.85-11.57,1.04-17.15.57-1.47-.06-2.5.38-3.09,1.32-.59.94-.82,2.56-.71,4.85.12,4.06.98,9.58,2.6,16.58,1.62,7,2.54,11.2,2.78,12.61.23,1.53-.13,2.9-1.1,4.1-.97,1.21-2.28,1.96-3.92,2.25-4.35.47-13.14.71-26.37.71ZM6967,99.35c3.58-.35,6.32-1.7,8.2-4.06,1.88-2.35,2.82-4.91,2.82-7.67,0-3-.94-5.32-2.82-6.97-1.88-1.65-4.5-2.47-7.85-2.47h-.53c-.88,0-1.65.26-2.29.79-.65.53-.97,1.23-.97,2.12v15.34c0,.88.35,1.62,1.06,2.2.71.59,1.5.82,2.38.71Z"/>
        <path class="cls-1" d="M7094.07,164.87c-28.69,0-45.97-.24-51.85-.71-1.47-.18-2.73-.81-3.79-1.9-1.06-1.09-1.59-2.39-1.59-3.92.65-50.73,2.44-89.42,5.38-116.05.06-1.29.59-2.34,1.59-3.13,1-.79,2.23-1.28,3.7-1.46,5.64-.47,15.64-.71,29.98-.71,7.64,0,14.61.24,20.9.71,1.7.06,3.1.79,4.19,2.2,1.09,1.41,1.46,2.85,1.1,4.32-.53,2.59-1.41,6.67-2.65,12.26-1.24,5.59-2.07,9.41-2.51,11.46-.44,2.06-1.06,5.13-1.85,9.22-.79,4.09-1.32,7.32-1.59,9.7-.26,2.38-.53,5.17-.79,8.38-.26,3.2-.4,6.36-.4,9.48,0,10.46,6.5,15.7,19.49,15.7,8.29,0,15.15-1.35,20.59-4.06,5.44-2.7,10.63-7.55,15.56-14.55,1.47-2.12,3.28-2.89,5.42-2.34,2.15.56,3.34,2.19,3.57,4.89,1.59,18.34,2.61,36.33,3.09,53.97.06,1.53-.4,2.84-1.37,3.92-.97,1.09-2.19,1.72-3.66,1.9-6.35.47-27.19.71-62.52.71Z"/>
        <path class="cls-1" d="M7193.01,164.87c-7.41,0-15.23-.24-23.46-.71-1.59-.12-2.87-.76-3.84-1.94-.97-1.18-1.34-2.53-1.1-4.06,2.41-20.22,6.76-41.21,13.05-62.96,6.29-21.75,12.67-39.89,19.14-54.41.76-1.88,2.21-2.91,4.32-3.09,5.53-.47,16.72-.71,33.6-.71s28.31.24,33.95.71c2.12.18,3.56,1.21,4.32,3.09,6.47,14.4,12.84,32.51,19.14,54.32,6.29,21.81,10.64,42.83,13.05,63.05.23,1.53-.12,2.87-1.06,4.01-.94,1.15-2.18,1.81-3.7,1.98-5.94.47-14.4.71-25.4.71s-18.43-.24-23.9-.71c-1.59-.18-2.91-.87-3.97-2.07-1.06-1.2-1.47-2.63-1.23-4.28.65-6.41.88-12.05.71-16.93-.06-3.53-1.18-6.07-3.35-7.63-2.18-1.56-4.79-2.34-7.85-2.34h-1.06c-2.94,0-5.56.81-7.85,2.43-2.29,1.62-3.47,4.13-3.53,7.54,0,6.94.29,12.64.88,17.11.06,1.71-.4,3.12-1.37,4.23-.97,1.12-2.25,1.76-3.84,1.94-5.82.47-14.37.71-25.66.71ZM7234.37,111.61h1.23c2,0,3.53-.53,4.58-1.59,1.06-1.06,1.41-2.53,1.06-4.41-.65-7.52-2.06-16.55-4.23-27.07-.35-1.65-.81-2.76-1.37-3.35-.56-.59-1.13-.59-1.72,0-.59.59-1.06,1.71-1.41,3.35-2.06,11.23-3.38,20.25-3.97,27.07-.35,1.88.01,3.35,1.1,4.41,1.09,1.06,2.66,1.59,4.72,1.59Z"/>
        <path class="cls-1" d="M7423.7,165.58c-5.11,0-9.95-1.19-14.51-3.57-4.56-2.38-8.39-5.34-11.51-8.86-3.12-3.53-6.12-7.38-9-11.55-2.88-4.17-5.32-8.02-7.32-11.55-2-3.53-4.09-6.48-6.26-8.86s-4.2-3.57-6.08-3.57c-3.29,0-4.94,4.38-4.94,13.14,0,2.18.16,4.91.49,8.2.32,3.29.75,6.92,1.28,10.89.53,3.97.85,6.57.97,7.8.23,1.88-.18,3.37-1.23,4.45-1.06,1.09-2.5,1.72-4.32,1.9-4.35.59-12.43.88-24.25.88-10.82,0-18.34-.29-22.57-.88-1.59-.18-2.91-.76-3.97-1.76-1.06-1-1.59-2.2-1.59-3.62,0-38.74,1.85-77.45,5.56-116.14.18-2.59,1.94-4.17,5.29-4.76,2.59-.47,7.52-.71,14.81-.71,4.06,0,8.26.24,12.61.71,2.88.24,5.17.87,6.88,1.9,1.7,1.03,3.67,2.93,5.91,5.69.41.82,1.23,2.41,2.47,4.76,1.24,2.35,2.34,4.41,3.31,6.17.97,1.76,2.19,3.9,3.66,6.39,1.47,2.5,2.84,4.66,4.1,6.48,1.26,1.82,2.6,3.59,4.01,5.29,1.41,1.71,2.79,3.01,4.14,3.92,1.35.91,2.61,1.37,3.79,1.37,1.71,0,2.81-2.1,3.31-6.3.5-4.2.5-8.94,0-14.2-.5-5.26-1.25-10.13-2.25-14.59-.41-1.59-.09-3.06.97-4.41,1.06-1.35,2.5-2.17,4.32-2.47,6.7-.47,13.08-.71,19.14-.71,8.7,0,15.43.24,20.19.71,1.53.18,2.81.68,3.84,1.5,1.03.82,1.63,1.91,1.81,3.26,3.06,33.57,4.79,66.96,5.2,100.18.06,2.94-.18,5.66-.71,8.16-.53,2.5-1.43,4.91-2.69,7.23-1.27,2.32-3.16,4.16-5.69,5.51-2.53,1.35-5.59,2.03-9.17,2.03Z"/>
        <path class="cls-1" d="M7504.91,164.87c-28.69,0-45.97-.24-51.85-.71-1.47-.18-2.73-.81-3.79-1.9-1.06-1.09-1.59-2.39-1.59-3.92.65-50.73,2.44-89.42,5.38-116.05.06-1.29.6-2.35,1.63-3.17,1.03-.82,2.25-1.29,3.66-1.41,6.53-.47,22.34-.71,47.44-.71s40.06.24,48.59.71c1.53.06,2.76.59,3.7,1.59.94,1,1.47,2.23,1.59,3.7.53,8.35.94,21.16,1.23,38.45,0,2.23-.82,3.67-2.47,4.32-1.65.65-3.47.29-5.47-1.06-11.52-6.76-23.34-10.14-35.45-10.14-4.65,0-8,.76-10.05,2.29-2.06,1.53-3.09,3.35-3.09,5.47v.71c0,4.23,5.47,6.35,16.4,6.35,2.76,0,6.5-.13,11.2-.4,4.7-.26,8.43-.43,11.2-.48,1.59-.12,2.95.29,4.1,1.23,1.15.94,1.72,2.2,1.72,3.79l-.18,13.58c0,1.71-.62,2.93-1.85,3.66-1.24.74-2.5.66-3.79-.22-4.94-2.12-9.01-3.57-12.21-4.36-3.21-.79-6.66-1.16-10.36-1.1-5.76.06-9.91.82-12.43,2.29-2.53,1.47-3.79,3.79-3.79,6.97v1.76c0,7.35,6.61,11.02,19.84,11.02,8.23,0,15.06-1.35,20.5-4.06,5.44-2.7,10.66-7.5,15.65-14.37.82-1.18,1.92-1.87,3.31-2.07,1.38-.21,2.63.12,3.75.97,1.12.85,1.76,2.07,1.94,3.66,1.64,14.4,2.67,30.1,3.09,47.09.06,1.53-.4,2.84-1.37,3.92-.97,1.09-2.19,1.72-3.66,1.9-6.35.47-27.19.71-62.52.71Z"/>
        <path class="cls-1" d="M7604.38,164.87c-7.41,0-15.23-.24-23.46-.71-1.59-.12-2.87-.76-3.84-1.94-.97-1.18-1.34-2.53-1.1-4.06,2.41-20.22,6.76-41.21,13.05-62.96,6.29-21.75,12.67-39.89,19.14-54.41.76-1.88,2.21-2.91,4.32-3.09,5.53-.47,16.72-.71,33.6-.71s28.31.24,33.95.71c2.12.18,3.56,1.21,4.32,3.09,6.47,14.4,12.84,32.51,19.14,54.32,6.29,21.81,10.64,42.83,13.05,63.05.23,1.53-.12,2.87-1.06,4.01-.94,1.15-2.18,1.81-3.7,1.98-5.94.47-14.4.71-25.4.71s-18.43-.24-23.9-.71c-1.59-.18-2.91-.87-3.97-2.07-1.06-1.2-1.47-2.63-1.23-4.28.65-6.41.88-12.05.71-16.93-.06-3.53-1.18-6.07-3.35-7.63-2.18-1.56-4.79-2.34-7.85-2.34h-1.06c-2.94,0-5.56.81-7.85,2.43-2.29,1.62-3.47,4.13-3.53,7.54,0,6.94.29,12.64.88,17.11.06,1.71-.4,3.12-1.37,4.23-.97,1.12-2.25,1.76-3.84,1.94-5.82.47-14.37.71-25.66.71ZM7645.74,111.61h1.23c2,0,3.53-.53,4.58-1.59,1.06-1.06,1.41-2.53,1.06-4.41-.65-7.52-2.06-16.55-4.23-27.07-.35-1.65-.81-2.76-1.37-3.35-.56-.59-1.13-.59-1.72,0-.59.59-1.06,1.71-1.41,3.35-2.06,11.23-3.38,20.25-3.97,27.07-.35,1.88.01,3.35,1.1,4.41,1.09,1.06,2.66,1.59,4.72,1.59Z"/>
        <path class="cls-1" d="M7747.68,164.87c-9.35,0-16.7-.24-22.05-.71-1.53-.18-2.81-.76-3.84-1.76-1.03-1-1.54-2.2-1.54-3.62,0-20.75.53-41.71,1.59-62.87,1.06-21.16,2.32-38.92,3.79-53.26.06-1.29.6-2.41,1.63-3.35,1.03-.94,2.19-1.47,3.48-1.59,9.64-.47,31.07-.71,64.29-.71,15.87,0,28.06,2.4,36.55,7.19,8.5,4.79,12.74,11.8,12.74,21.03s-3.79,16.93-11.38,23.28-17.52,10.49-29.81,12.43c-1.88.24-2.82.94-2.82,2.12s1,1.85,3,2.03c6.29.53,12.2,1.98,17.72,4.36,5.52,2.38,10.55,5.67,15.08,9.88,4.53,4.2,8.29,9.6,11.29,16.18,3,6.58,4.91,14.02,5.73,22.31.23,1.59-.19,3-1.28,4.23-1.09,1.23-2.46,1.94-4.1,2.12-5.94.47-14.73.71-26.37.71s-20.67-.24-26.01-.71c-1.59-.18-2.9-.75-3.92-1.72-1.03-.97-1.54-2.19-1.54-3.66,0-10.41-.88-19.77-2.65-28.09-1.76-8.32-4.17-13.77-7.23-16.36-1.12-.59-2.03-.25-2.73,1.01-.71,1.26-1.12,3.16-1.23,5.69-.41,8.99.65,21.31,3.17,36.95.35,1.53-.02,2.9-1.1,4.1-1.09,1.21-2.46,1.9-4.1,2.07-6.29.47-15.08.71-26.37.71ZM7780.93,98.65c3-1.23,5.28-2.91,6.83-5.03,1.56-2.12,2.34-4.44,2.34-6.97s-.82-4.28-2.47-5.6c-1.65-1.32-3.82-1.98-6.53-1.98h-.53c-2.29,0-3.44,1.47-3.44,4.41v12.79c0,2.59,1.26,3.38,3.79,2.38Z"/>
      </g>
      <path class="cls-2" d="M5517.74,117.54l-65.07-12.4-4.25-1.25,20.55-63.82,4.25,1.32,59.92,28.22,10.73,29.96-26.13,17.97ZM5553.27,130.01l-32.12,58.17-2.58,3.41-54.34-39.36,2.58-3.41,45.36-48.35,31.7-.91,9.41,30.45ZM5518.57,80.34l-8.15-65.91v-4.32h66.81v4.32l-8.15,65.91-25.22,19.23-25.29-19.23ZM5575.49,100.47l45.42,48.35,2.58,3.41-54.41,39.36-2.09-3.41-32.54-58.17,9.41-30.45,31.63.91ZM5554.11,69.61l60.33-27.8,4.32-1.32,20.55,63.4-4.32,1.25-65,12.82-26.13-18.39,10.24-29.96Z"/>
      <g>
        <path class="cls-3" d="M5795.07,164.87c-11.41,0-19.11-.24-23.1-.71-1.53-.18-2.81-.81-3.84-1.9-1.03-1.09-1.54-2.39-1.54-3.92.76-33.1,4.61-71.78,11.55-116.05.18-1.29.75-2.35,1.72-3.17.97-.82,2.13-1.29,3.48-1.41,5.64-.47,13.9-.71,24.78-.71s18.58.24,22.57.71c4.47.53,7.23,3.12,8.29,7.76,1.53,8.23,3.14,16.26,4.85,24.07,2.7,11.05,5.79,16.58,9.26,16.58,3.17,0,5.94-5.06,8.29-15.17.94-3.7,2.04-8.6,3.31-14.68,1.26-6.08,2.01-9.69,2.25-10.8,1.06-4.64,3.76-7.23,8.11-7.76,4-.47,11.58-.71,22.75-.71,9.99,0,18.19.24,24.6.71,1.41.12,2.6.57,3.57,1.37.97.79,1.57,1.87,1.81,3.22,6.76,43.39,10.55,82.07,11.38,116.05.06,1.53-.4,2.84-1.37,3.92-.97,1.09-2.25,1.72-3.84,1.9-4,.47-11.64.71-22.93.71-13.11,0-21.72-.24-25.84-.71-1.53-.18-2.76-.79-3.7-1.85-.94-1.06-1.32-2.5-1.15-4.32,1.64-13.29,2.47-25.19,2.47-35.71,0-6.47-.47-11.46-1.41-14.99-.94-3.53-2.2-5.29-3.79-5.29-.65,0-1.26.19-1.85.57-.59.38-1.15,1.07-1.68,2.07-.53,1-.98,1.93-1.37,2.78-.38.85-.84,2.22-1.37,4.1-.53,1.88-.94,3.4-1.23,4.54-.29,1.15-.74,2.98-1.32,5.51-1.88,9.76-2.85,14.93-2.91,15.52-1.12,4.76-2.73,8.2-4.85,10.32-2.12,2.12-4.91,3.17-8.38,3.17-3.23,0-5.86-1.13-7.89-3.4-2.03-2.26-3.6-5.63-4.72-10.1-1.53-7.82-2.68-13.37-3.44-16.67-1.35-6-2.65-10.41-3.88-13.23-1.23-2.82-2.76-4.23-4.58-4.23-1.53,0-2.76,1.79-3.7,5.38-.94,3.59-1.38,8.58-1.32,14.99,0,6.47.76,18.02,2.29,34.66.18,1.82-.19,3.26-1.1,4.32-.91,1.06-2.1,1.68-3.57,1.85-4.12.47-12.67.71-25.66.71Z"/>
        <path class="cls-3" d="M5970.38,164.87c-7.41,0-15.23-.24-23.46-.71-1.59-.12-2.87-.76-3.84-1.94-.97-1.18-1.34-2.53-1.1-4.06,2.41-20.22,6.76-41.21,13.05-62.96,6.29-21.75,12.67-39.89,19.14-54.41.76-1.88,2.21-2.91,4.32-3.09,5.53-.47,16.72-.71,33.6-.71s28.31.24,33.95.71c2.12.18,3.56,1.21,4.32,3.09,6.47,14.4,12.84,32.51,19.14,54.32,6.29,21.81,10.64,42.83,13.05,63.05.23,1.53-.12,2.87-1.06,4.01-.94,1.15-2.18,1.81-3.7,1.98-5.94.47-14.4.71-25.4.71s-18.43-.24-23.9-.71c-1.59-.18-2.91-.87-3.97-2.07-1.06-1.2-1.47-2.63-1.23-4.28.65-6.41.88-12.05.71-16.93-.06-3.53-1.18-6.07-3.35-7.63-2.18-1.56-4.79-2.34-7.85-2.34h-1.06c-2.94,0-5.56.81-7.85,2.43-2.29,1.62-3.47,4.13-3.53,7.54,0,6.94.29,12.64.88,17.11.06,1.71-.4,3.12-1.37,4.23-.97,1.12-2.25,1.76-3.84,1.94-5.82.47-14.37.71-25.66.71ZM6011.74,111.61h1.23c2,0,3.53-.53,4.58-1.59,1.06-1.06,1.41-2.53,1.06-4.41-.65-7.52-2.06-16.55-4.23-27.07-.35-1.65-.81-2.76-1.37-3.35-.56-.59-1.13-.59-1.72,0-.59.59-1.06,1.71-1.41,3.35-2.06,11.23-3.38,20.25-3.97,27.07-.35,1.88.01,3.35,1.1,4.41,1.09,1.06,2.66,1.59,4.72,1.59Z"/>
        <path class="cls-3" d="M6138.81,164.7c-14.17,0-23.6-.24-28.31-.71-1.76-.23-3.16-1.03-4.19-2.38-1.03-1.35-1.4-2.85-1.1-4.5,1.41-9.35,3.28-22.53,5.6-39.55,2.32-17.02,3.72-27.12,4.19-30.29.76-3.17.47-5.6-.88-7.28-1.35-1.68-3.17-2.51-5.47-2.51-2.12,0-4.73.76-7.85,2.29-3.12,1.53-6.57,3.47-10.36,5.82-3.79,2.35-6.45,3.91-7.98,4.67-1.29,1.35-2.76,1.54-4.41.57-1.65-.97-2.47-2.66-2.47-5.07.53-19.16,1.26-33.54,2.21-43.12.18-3.12,1.97-4.76,5.38-4.94,9.76-.47,28.13-.71,55.11-.71s45.35.24,55.11.71c3.41.18,5.2,1.82,5.38,4.94.41,4.29.88,11.85,1.41,22.66.53,10.82.79,17.76.79,20.81,0,2.41-.82,4.04-2.47,4.89-1.65.85-3.12.6-4.41-.75-1.53-.76-4.2-2.32-8.02-4.67-3.82-2.35-7.28-4.29-10.36-5.82-3.09-1.53-5.69-2.29-7.8-2.29-2.23,0-4.01.84-5.33,2.51-1.32,1.68-1.6,4.1-.84,7.28.47,3.17,1.87,13.27,4.19,30.29,2.32,17.02,4.19,30.2,5.6,39.55.29,1.65-.06,3.15-1.06,4.5-1,1.35-2.38,2.15-4.14,2.38-4.58.47-13.76.71-27.51.71Z"/>
        <path class="cls-3" d="M6278.05,165.58c-9.11,0-17.36-.62-24.74-1.85s-14.21-3.31-20.5-6.22c-6.29-2.91-11.57-6.61-15.83-11.11-4.26-4.5-7.58-10.13-9.96-16.89-2.38-6.76-3.57-14.52-3.57-23.28,0-13.93,3.16-26.19,9.48-36.77,6.32-10.58,15.22-18.75,26.72-24.51,11.49-5.76,24.74-8.64,39.73-8.64,8.82,0,16.3.6,22.44,1.81,6.14,1.21,11.95,3.13,17.42,5.78,2.47,1.35,3.38,3.53,2.73,6.53-.47,3.35-1.22,8.99-2.25,16.93-1.03,7.94-1.78,13.61-2.25,17.02-.24,2.12-1.06,3.43-2.47,3.92-1.41.5-2.94.1-4.59-1.19-8.47-5.94-17.49-8.91-27.07-8.91-7.76,0-13.49,2.03-17.2,6.08s-5.56,10.17-5.56,18.34c0,5.29,2.21,9.47,6.61,12.52,4.41,3.06,10.61,4.59,18.61,4.59,7.52,0,14.45-1.07,20.77-3.22,6.32-2.15,12.89-5.83,19.71-11.07,1.29-1.41,2.78-1.79,4.45-1.15,1.68.65,2.6,2.29,2.78,4.94.23,4,.97,18.22,2.21,42.68,0,2.59-1.15,4.38-3.44,5.38-6.29,2.12-14.52,4.03-24.69,5.73-10.17,1.7-20.02,2.56-29.54,2.56Z"/>
        <path class="cls-3" d="M6370.29,164.87c-10.05,0-17.75-.24-23.1-.71-1.65-.18-3.04-.76-4.19-1.76-1.15-1-1.72-2.2-1.72-3.62,0-49.74,1.79-88.45,5.38-116.14.18-1.29.84-2.39,1.98-3.31,1.15-.91,2.48-1.46,4.01-1.63,4.94-.47,11.38-.71,19.31-.71,10.58,0,18.46.24,23.63.71,1.94.18,3.45.9,4.54,2.16,1.09,1.26,1.46,2.78,1.1,4.54-1.53,13.23-2.38,24.31-2.56,33.24,0,2.7.84,4.85,2.51,6.44,1.68,1.59,3.78,2.38,6.3,2.38h.97c2.47,0,4.5-.79,6.08-2.38,1.59-1.59,2.38-3.73,2.38-6.44-.06-3.7-.85-14.78-2.38-33.24-.18-1.82.22-3.34,1.19-4.54.97-1.2,2.4-1.92,4.28-2.16,5.35-.47,13.29-.71,23.81-.71,8.11,0,14.55.24,19.31.71,1.53.18,2.84.71,3.92,1.59s1.72,2,1.9,3.35c3.58,26.34,5.38,65.05,5.38,116.14,0,1.41-.54,2.62-1.63,3.62-1.09,1-2.51,1.59-4.28,1.76-5.17.47-12.91.71-23.19.71-11.23,0-19.58-.24-25.04-.71-1.76-.18-3.21-.81-4.32-1.9-1.12-1.09-1.56-2.63-1.32-4.63.18-2.06.5-5.42.97-10.1.47-4.67.82-8.76,1.06-12.26.23-3.5.35-6.86.35-10.1,0-2.94-.78-5.28-2.34-7.01-1.56-1.73-3.6-2.6-6.13-2.6h-.97c-2.47,0-4.5.9-6.08,2.69-1.59,1.79-2.38,4.1-2.38,6.92,0,3.29.1,6.57.31,9.83.21,3.26.54,7.53,1.01,12.79.47,5.26.76,8.54.88,9.83.23,2-.22,3.53-1.37,4.59-1.15,1.06-2.57,1.71-4.28,1.94-5.47.47-13.9.71-25.31.71Z"/>
      </g>
      <g>
        <path class="cls-1" d="M2035.71,161.53c-7.41,0-15.23-.24-23.46-.71-1.59-.12-2.87-.76-3.84-1.94-.97-1.18-1.34-2.53-1.1-4.06,2.41-20.22,6.76-41.21,13.05-62.96,6.29-21.75,12.67-39.89,19.14-54.41.76-1.88,2.21-2.91,4.32-3.09,5.53-.47,16.72-.71,33.6-.71s28.31.24,33.95.71c2.12.18,3.56,1.21,4.32,3.09,6.47,14.4,12.84,32.51,19.14,54.32,6.29,21.81,10.64,42.83,13.05,63.05.23,1.53-.12,2.87-1.06,4.01-.94,1.15-2.18,1.81-3.7,1.98-5.94.47-14.4.71-25.4.71s-18.43-.24-23.9-.71c-1.59-.18-2.91-.87-3.97-2.07-1.06-1.2-1.47-2.63-1.23-4.28.65-6.41.88-12.05.71-16.93-.06-3.53-1.18-6.07-3.35-7.63-2.18-1.56-4.79-2.34-7.85-2.34h-1.06c-2.94,0-5.56.81-7.85,2.43-2.29,1.62-3.47,4.13-3.53,7.54,0,6.94.29,12.64.88,17.11.06,1.71-.4,3.12-1.37,4.23-.97,1.12-2.25,1.76-3.84,1.94-5.82.47-14.37.71-25.66.71ZM2077.07,108.27h1.23c2,0,3.53-.53,4.58-1.59,1.06-1.06,1.41-2.53,1.06-4.41-.65-7.52-2.06-16.55-4.23-27.07-.35-1.65-.81-2.76-1.37-3.35-.56-.59-1.13-.59-1.72,0-.59.59-1.06,1.71-1.41,3.35-2.06,11.23-3.38,20.25-3.97,27.07-.35,1.88.01,3.35,1.1,4.41,1.09,1.06,2.66,1.59,4.72,1.59Z"/>
        <path class="cls-1" d="M2179.18,161.53c-11.41,0-19.11-.24-23.1-.71-1.53-.18-2.81-.81-3.84-1.9-1.03-1.09-1.54-2.39-1.54-3.92.76-33.1,4.61-71.78,11.55-116.05.18-1.29.75-2.35,1.72-3.17.97-.82,2.13-1.29,3.48-1.41,5.64-.47,13.9-.71,24.78-.71s18.58.24,22.57.71c4.47.53,7.23,3.12,8.29,7.76,1.53,8.23,3.14,16.26,4.85,24.07,2.7,11.05,5.79,16.58,9.26,16.58,3.17,0,5.94-5.06,8.29-15.17.94-3.7,2.04-8.6,3.31-14.68,1.26-6.08,2.01-9.69,2.25-10.8,1.06-4.64,3.76-7.23,8.11-7.76,4-.47,11.58-.71,22.75-.71,9.99,0,18.19.24,24.6.71,1.41.12,2.6.57,3.57,1.37.97.79,1.57,1.87,1.81,3.22,6.76,43.39,10.55,82.07,11.38,116.05.06,1.53-.4,2.84-1.37,3.92-.97,1.09-2.25,1.72-3.84,1.9-4,.47-11.64.71-22.93.71-13.11,0-21.72-.24-25.84-.71-1.53-.18-2.76-.79-3.7-1.85-.94-1.06-1.32-2.5-1.15-4.32,1.64-13.29,2.47-25.19,2.47-35.71,0-6.47-.47-11.46-1.41-14.99-.94-3.53-2.2-5.29-3.79-5.29-.65,0-1.26.19-1.85.57-.59.38-1.15,1.07-1.68,2.07-.53,1-.98,1.93-1.37,2.78-.38.85-.84,2.22-1.37,4.1-.53,1.88-.94,3.4-1.23,4.54-.29,1.15-.74,2.98-1.32,5.51-1.88,9.76-2.85,14.93-2.91,15.52-1.12,4.76-2.73,8.2-4.85,10.32-2.12,2.12-4.91,3.17-8.38,3.17-3.23,0-5.86-1.13-7.89-3.4-2.03-2.26-3.6-5.63-4.72-10.1-1.53-7.82-2.68-13.37-3.44-16.67-1.35-6-2.65-10.41-3.88-13.23-1.23-2.82-2.76-4.23-4.58-4.23-1.53,0-2.76,1.79-3.7,5.38-.94,3.59-1.38,8.58-1.32,14.99,0,6.47.76,18.02,2.29,34.66.18,1.82-.19,3.26-1.1,4.32-.91,1.06-2.1,1.68-3.57,1.85-4.12.47-12.67.71-25.66.71Z"/>
        <path class="cls-1" d="M2358.46,161.53c-11.17,0-19.43-.24-24.78-.71-1.59-.18-2.91-.76-3.97-1.76-1.06-1-1.59-2.26-1.59-3.79,0-48.91,1.56-87.57,4.67-115.96.18-1.35.73-2.47,1.67-3.35s2.12-1.41,3.53-1.59c4.76-.47,11.58-.71,20.46-.71s15.43.24,20.37.71c1.47.18,2.65.71,3.53,1.59s1.41,2,1.59,3.35c3.12,28.39,4.67,67.05,4.67,115.96,0,1.47-.54,2.72-1.63,3.75-1.09,1.03-2.42,1.63-4.01,1.81-5.17.47-13.35.71-24.51.71Z"/>
        <path class="cls-1" d="M2445.06,162.24c-16.7,0-29.54-4.76-38.54-14.29-8.99-9.52-13.49-24.25-13.49-44.18,0-13.93,3.19-26.26,9.57-36.99,6.38-10.73,15.34-19.05,26.9-24.96s24.76-8.86,39.64-8.86c16.7,0,31.19,2.18,43.47,6.53,2.47,1.29,3.5,3.32,3.09,6.08-.06.24-.65,5.14-1.76,14.73-1.12,9.58-1.91,16.11-2.38,19.58-.24,1.88-1.09,3.09-2.56,3.62-1.47.53-2.85.35-4.14-.53-8.35-4.41-18.34-6.61-29.98-6.61-7.82,0-13.83,2.22-18.03,6.66-4.2,4.44-6.31,11.19-6.31,20.24,0,10.82,3.91,16.23,11.73,16.23,2.47,0,4.78-1.23,6.92-3.7,2.14-2.47,3.22-5.82,3.22-10.05,0-4-.56-6.94-1.68-8.82-.65-1.65-.65-3.07,0-4.28.65-1.2,1.79-1.84,3.44-1.9,7.05-.53,22.34-1.53,45.86-3,1.65-.06,3.03.41,4.14,1.41,1.12,1,1.73,2.26,1.85,3.79,1.41,17.7,2.12,38.48,2.12,62.35,0,1.53-.5,2.79-1.5,3.79-1,1-2.29,1.59-3.88,1.76-2.35.23-8.61.35-18.78.35s-16.43-.12-18.78-.35c-1.82-.29-3.25-.88-4.28-1.76-1.03-.88-1.43-2.03-1.19-3.44.76-7.29,1.09-12.49.97-15.61.12-2.94-.41-4.45-1.59-4.54-1.18-.09-2.35,1.31-3.53,4.19-5.82,15.05-15.99,22.57-30.51,22.57Z"/>
        <path class="cls-1" d="M2601.84,162.24c-8.58,0-16.3-.59-23.15-1.76s-13.21-3.17-19.09-6c-5.88-2.82-10.77-6.45-14.68-10.89-3.91-4.44-6.97-10.04-9.17-16.8-2.21-6.76-3.31-14.55-3.31-23.37,0-10.93,1.68-20.82,5.03-29.67,3.35-8.85,8.05-16.24,14.11-22.18,6.05-5.94,13.36-10.51,21.91-13.71,8.55-3.2,18-4.83,28.35-4.89,13.81,0,25.93,2.76,36.33,8.29,10.41,5.53,18.5,13.62,24.29,24.29,5.79,10.67,8.69,23.3,8.69,37.87,0,10.99-1.63,20.36-4.89,28.09-3.26,7.73-8.04,13.82-14.33,18.25-6.29,4.44-13.51,7.63-21.65,9.57-8.14,1.94-17.62,2.91-28.44,2.91ZM2601.84,118.76c8.05,0,12.08-5.85,12.08-17.55,0-6.82-1.09-12.64-3.26-17.46-2.18-4.82-5.12-7.23-8.82-7.23s-6.64,2.41-8.82,7.23c-2.18,4.82-3.26,10.64-3.26,17.46,0,11.7,4.03,17.55,12.08,17.55Z"/>
        <path class="cls-1" d="M2735.79,162.24c-7.7,0-17.04-.68-28-2.03-10.96-1.35-20.24-3.09-27.82-5.2-1-.35-1.87-1.01-2.6-1.98s-1.13-2.04-1.19-3.22c-.06-1.82-.26-7.51-.62-17.06-.35-9.55-.56-16.8-.62-21.74-.06-2.7.97-4.41,3.09-5.11,2.12-.71,4.03-.15,5.73,1.68,5.41,4.17,11.42,7.32,18.03,9.44,6.61,2.12,13.24,3.17,19.89,3.17,9.05,0,13.7-2.82,13.93-8.47,0-1.76-1.01-3.35-3.04-4.76s-4.66-2.65-7.89-3.7c-3.23-1.06-6.83-2.16-10.8-3.31-3.97-1.15-7.92-2.59-11.86-4.32-3.94-1.73-7.54-3.73-10.8-6-3.26-2.26-5.92-5.25-7.98-8.95-2.06-3.7-3.09-7.94-3.09-12.7,0-12.11,4.61-20.97,13.84-26.59,9.23-5.61,23.22-8.42,41.97-8.42s35.83,1.62,48.94,4.85c2.41.71,3.79,2.29,4.14,4.76,1.82,19.87,2.79,30.86,2.91,32.98.23,3.06-.57,4.97-2.42,5.73-1.85.76-3.63.29-5.33-1.41-4.41-2.47-9.36-4.45-14.86-5.95-5.5-1.5-10.66-2.34-15.48-2.51-5.88-.06-10.51.56-13.89,1.85-3.38,1.29-5.07,3.09-5.07,5.38,0,1.47.73,2.75,2.2,3.84,1.47,1.09,3.42,2.03,5.86,2.82,2.44.79,5.26,1.56,8.47,2.29,3.2.74,6.57,1.56,10.1,2.47,3.53.91,7.05,1.93,10.58,3.04,3.53,1.12,6.89,2.59,10.1,4.41,3.2,1.82,6.03,3.9,8.47,6.22,2.44,2.32,4.38,5.23,5.82,8.73,1.44,3.5,2.16,7.39,2.16,11.68-.06,12.41-5.51,21.86-16.36,28.35-10.85,6.5-26.35,9.74-46.52,9.74Z"/>
      </g>
      <rect class="cls-4" x="8190.09" width="127" height="152"/>
    </g>
  </g>
</svg>