<?xml version="1.0" encoding="UTF-8"?>
<svg id="Capa_2" data-name="Capa 2" xmlns="http://www.w3.org/2000/svg" viewBox="0 0 164.49 164.52">
  <defs>
    <style>
      .cls-1 {
        fill: #ffeecf;
      }

      .cls-2 {
        fill: none;
        stroke: #ff5050;
        stroke-linecap: round;
        stroke-linejoin: round;
        stroke-width: 12.91px;
      }
    </style>
  </defs>
  <g id="Capa_1-2" data-name="Capa 1">
    <g>
      <path class="cls-1" d="M72.17,164.18c-8.26-1.02-16.03-4.36-22.48-9.67-1.91-1.57-3.7-3.32-5.33-5.22-19.52-3.28-34.3-19.02-36.26-38.92-.24-2.49-.27-5-.08-7.52-11.3-15.94-10.66-37.89,1.85-53.15,1.61-1.97,3.41-3.8,5.36-5.47,3.33-19.25,19.35-34.28,38.99-36.17,2.5-.24,5.03-.27,7.53-.07C70.65,1.7,81.42-1.01,92.38.34c8.3,1.02,16.1,4.39,22.56,9.74,1.86,1.54,3.6,3.24,5.19,5.09,19.53,3.26,34.33,19,36.3,38.9.25,2.53.28,5.1.08,7.66,4.38,6.21,7.06,13.46,7.78,21.13,1.1,11.65-2.41,23.03-9.87,32.05-1.54,1.86-3.25,3.61-5.1,5.2-3.28,19.27-19.27,34.35-38.92,36.28-2.5.25-5.02.28-7.53.09-8.9,6.33-19.7,9.06-30.7,7.71h0Z"/>
      <path class="cls-1" d="M72.91,158.22c-7.13-.88-13.84-3.76-19.4-8.35-2.21-1.82-4.22-3.91-5.97-6.2-.16-.02-.31-.04-.47-.05-17.68-2.18-31.24-16.09-32.99-33.84-.28-2.87-.23-5.79.15-8.66-10.93-13.64-11.24-33.57.28-47.62,1.86-2.26,3.99-4.32,6.33-6.1,1.97-17.37,15.88-31.64,33.96-33.38,2.74-.26,5.51-.23,8.24.11.14.02.29.04.43.06,7.86-6.26,17.93-9.17,28.17-7.91,7.16.88,13.89,3.79,19.47,8.4,2.17,1.79,4.14,3.84,5.86,6.08.17.02.33.04.5.06,17.67,2.18,31.23,16.08,32.99,33.81.29,2.91.23,5.87-.16,8.79,4.53,5.69,7.33,12.57,8.02,19.98.95,10.06-2.08,19.88-8.52,27.66-1.8,2.17-3.85,4.14-6.09,5.86-1.92,17.38-15.81,31.69-33.89,33.47-2.77.27-5.57.24-8.32-.1-.12-.01-.23-.03-.35-.04-7.86,6.3-17.96,9.22-28.23,7.96Z"/>
      <path class="cls-1" d="M73.65,152.27c-5.99-.74-11.64-3.17-16.32-7.02-2.53-2.09-4.75-4.59-6.53-7.35-1-.03-2-.1-2.99-.22-14.64-1.8-26.31-13.78-27.75-28.47-.32-3.28-.12-6.63.57-9.86-10.84-11.46-11.73-29.52-1.47-42.03,2.11-2.58,4.65-4.82,7.46-6.63.48-15.77,12.65-29.13,28.76-30.68,2.3-.22,4.64-.19,6.94.09.98.12,1.96.29,2.93.5,6.84-6.43,16.17-9.52,25.66-8.35,6.02.74,11.68,3.19,16.37,7.07,2.49,2.06,4.67,4.52,6.44,7.25,1.01.03,2.02.1,3.02.23,14.86,1.83,26.27,13.53,27.75,28.45.33,3.32.12,6.7-.59,9.97,4.82,5.12,7.78,11.66,8.45,18.77.8,8.46-1.75,16.73-7.17,23.27-2.06,2.49-4.53,4.67-7.25,6.44-.44,15.77-12.59,29.17-28.69,30.75-2.33.23-4.68.2-7-.09-.96-.12-1.92-.28-2.86-.49-6.85,6.47-16.2,9.57-25.72,8.4Z"/>
      <path class="cls-1" d="M32.73,54.15c-1.36-14.19,9.03-26.8,23.23-28.17,3.78-.36,7.59.11,11.16,1.39,9.09-10.98,25.37-12.52,36.35-3.42,2.88,2.39,5.21,5.37,6.83,8.74,14.19-1.4,26.83,8.96,28.23,23.15.38,3.8-.1,7.64-1.38,11.24,10.98,9.09,12.52,25.37,3.42,36.35-2.39,2.88-5.37,5.21-8.74,6.83,1.39,14.19-8.98,26.82-23.17,28.22-3.77.37-7.59-.09-11.16-1.36-9.07,11-25.34,12.58-36.34,3.51-2.92-2.4-5.27-5.42-6.9-8.84-14.19,1.39-26.82-8.98-28.22-23.17-.37-3.77.09-7.59,1.36-11.16-11.03-9.04-12.63-25.31-3.59-36.33,2.42-2.96,5.47-5.34,8.93-6.97Z"/>
    </g>
    <g>
      <path class="cls-2" d="M32.73,54.15c-1.36-14.19,9.03-26.8,23.23-28.17,3.78-.36,7.59.11,11.16,1.39,9.09-10.98,25.37-12.52,36.35-3.42,2.88,2.39,5.21,5.37,6.83,8.74,14.19-1.4,26.83,8.96,28.23,23.15.38,3.8-.1,7.64-1.38,11.24,10.98,9.09,12.52,25.37,3.42,36.35-2.39,2.88-5.37,5.21-8.74,6.83,1.39,14.19-8.98,26.82-23.17,28.22-3.77.37-7.59-.09-11.16-1.36-9.07,11-25.34,12.58-36.34,3.51-2.92-2.4-5.27-5.42-6.9-8.84-14.19,1.39-26.82-8.98-28.22-23.17-.37-3.77.09-7.59,1.36-11.16-11.03-9.04-12.63-25.31-3.59-36.33,2.42-2.96,5.47-5.34,8.93-6.97Z"/>
      <path class="cls-2" d="M63.05,79.86l11.23,14.39,28.78-22.47"/>
    </g>
  </g>
</svg>