<?xml version="1.0" encoding="UTF-8"?>
<svg id="Capa_2" data-name="Capa 2" xmlns="http://www.w3.org/2000/svg" viewBox="0 0 413.12 493.95">
  <defs>
    <style>
      .cls-1 {
        fill: none;
        stroke: #ea5454;
        stroke-linecap: round;
        stroke-miterlimit: 10;
        stroke-width: 36.32px;
      }

      .cls-2 {
        fill: #ffedce;
      }
    </style>
  </defs>
  <g id="Capa_1-2" data-name="Capa 1">
    <g>
      <path class="cls-2" d="M413.12,287.38c0,148.96-158.48,261.48-315.41,178.25-30.54-16.19-55.38-41.81-71.13-72.58-61.38-119.98-9.55-239.74,84.89-288.92,9.64-5.02,15.72-14.94,15.71-25.81V28.27C127.18,12.66,139.84,0,155.45,0h101.65c15.61,0,28.26,12.65,28.27,28.26v49.79c0,10.87,6.07,20.81,15.72,25.81,66.45,34.39,112.03,103.68,112.04,183.52Z"/>
      <g>
        <line class="cls-1" x1="166.1" y1="44.91" x2="246.92" y2="44.91"/>
        <line class="cls-1" x1="206.52" y1="287.39" x2="267.13" y2="226.77"/>
        <circle class="cls-1" cx="206.52" cy="287.39" r="161.66"/>
      </g>
    </g>
  </g>
</svg>