<?xml version="1.0" encoding="UTF-8"?>
<svg id="Capa_2" data-name="Capa 2" xmlns="http://www.w3.org/2000/svg" viewBox="0 0 480.32 472.12">
  <defs>
    <style>
      .cls-1 {
        fill: none;
        stroke: #ea5454;
        stroke-linecap: round;
        stroke-miterlimit: 10;
        stroke-width: 42.9px;
      }

      .cls-2 {
        fill: #ffedce;
      }
    </style>
  </defs>
  <g id="Capa_1-2" data-name="Capa 1">
    <g>
      <path class="cls-2" d="M144.78,472.12c-18.81-.03-36.14-9.47-46.37-25.26-6.66-10.38-9.7-22.7-8.65-34.83l8.3-99.89-77.75-63.55c-23.51-19.05-27.18-53.92-8.04-77.6,7.79-9.58,18.58-16.32,30.47-19.09l97.73-23.08,36.49-93.62C185.18,14.12,205.92-.03,228.56,0c6.9,0,13.65,1.29,20.08,3.81,11.33,4.48,20.92,12.58,27.13,22.85l52.1,85.87,100.38,5.88c14.67.83,28.2,7.36,38.04,18.38,9.83,11.02,14.78,25.2,13.94,39.95-.72,12.17-5.46,23.85-13.34,32.98l-65.6,76.04,25.5,97.11c3.76,14.06,1.8,28.96-5.58,41.75-7.4,12.79-19.32,21.94-33.6,25.76-4.66,1.24-9.5,1.88-14.35,1.88-7.41-.01-14.63-1.48-21.46-4.36l-92.55-38.84-84.5,54.28c-8.9,5.74-19.28,8.8-29.96,8.78Z"/>
      <path class="cls-1" d="M219.72,51.52c2.09-5.34,8.11-7.98,13.45-5.89,2.12.83,3.91,2.33,5.09,4.28l53.04,87.41c7.09,11.68,19.47,19.13,33.11,19.93l102.13,5.98c5.73.33,10.1,5.23,9.78,10.96-.13,2.28-1.01,4.46-2.5,6.19l-66.75,77.36c-8.94,10.36-12.2,24.46-8.74,37.7l25.95,98.84c1.48,5.54-1.81,11.23-7.35,12.72-2.24.6-4.62.43-6.75-.48l-94.27-39.55c-12.61-5.28-27.01-4.03-38.51,3.35l-86,55.24c-4.82,3.11-11.25,1.73-14.36-3.09-1.25-1.94-1.82-4.24-1.62-6.54l8.47-101.81c1.14-13.65-4.52-26.98-15.12-35.64l-79.11-64.65c-4.46-3.61-5.14-10.15-1.53-14.61,1.46-1.8,3.47-3.06,5.73-3.58l99.54-23.51c13.31-3.13,24.23-12.62,29.2-25.36l37.13-95.26Z"/>
    </g>
  </g>
</svg>