<?xml version="1.0" encoding="UTF-8"?>
<svg id="Capa_2" data-name="Capa 2" xmlns="http://www.w3.org/2000/svg" viewBox="0 0 455.47 449.98">
  <defs>
    <style>
      .cls-1 {
        fill: none;
        stroke: #ea5454;
        stroke-miterlimit: 10;
        stroke-width: 36.32px;
      }

      .cls-2 {
        fill: #ffedce;
      }
    </style>
  </defs>
  <g id="Capa_1-2" data-name="Capa 1">
    <g>
      <g>
        <path class="cls-2" d="M393.07,251.36l-67.83,33.05-31.1-63.84-59.85,29.16,31.1,63.84-127.67,62.21c-40.1,19.54-88.63,2.81-108.17-37.29-19.54-40.1-2.81-88.63,37.29-108.17l255.34-124.42c40.1-19.54,88.63-2.81,108.17,37.29,19.54,40.1,2.81,88.63-37.29,108.17Z"/>
        <path class="cls-2" d="M245.51,272.75l-127.67,62.21c-17.63,8.59-38.88,1.26-47.47-16.37-8.59-17.63-1.26-38.88,16.37-47.47l255.34-124.42c17.63-8.59,38.88-1.26,47.47,16.37,8.59,17.63,1.26,38.88-16.37,47.47l-67.83,33.05"/>
        <path class="cls-2" d="M346.01,195.3l-39.77-81.63c-4.9,2.39-6.95,8.32-4.56,13.23-18.73-38.43-81.63-47.96-137.36-20.8-55.73,27.16-87,82.57-68.27,121-2.39-4.91-8.33-6.95-13.23-4.56l39.77,81.63c-40.1,19.54-88.63,2.81-108.17-37.29C-26.57,182.76,22.84,74.03,124.54,24.47,226.24-25.08,342.32,3.02,383.3,87.13c19.54,40.1,2.81,88.63-37.29,108.17Z"/>
        <path class="cls-2" d="M102.7,263.35c-17.63,8.59-38.88,1.26-47.47-16.37-30.06-61.7,9.87-143.05,89.2-181.7,79.32-38.65,168-19.97,198.06,41.73,8.59,17.63,1.26,38.88-16.37,47.47"/>
        <path class="cls-2" d="M400.03,346.7l-191.51,93.31c-48.91,23.83-108.08,3.43-131.91-45.48-19.54-40.1-2.81-88.63,37.29-108.17l39.77,81.63c4.9-2.39,6.95-8.32,4.56-13.23,1.9,3.89,6.61,5.52,10.5,3.62l191.51-93.31c3.89-1.9,5.52-6.61,3.62-10.5,2.39,4.91,8.33,6.95,13.23,4.56l-39.77-81.63c40.1-19.54,88.63-2.81,108.17,37.29,23.83,48.91,3.43,108.08-45.48,131.91Z"/>
        <path class="cls-2" d="M133.8,327.18c-17.63,8.59-24.95,29.84-16.37,47.47,12.88,26.44,44.76,37.43,71.2,24.55l191.51-93.31c26.44-12.88,37.43-44.76,24.55-71.2-8.59-17.63-29.84-24.95-47.47-16.37h0"/>
        <path class="cls-2" d="M304.99,313.99c-15.18,7.4-32.79,10.13-50.61,6.7l-133.62-25.75,17.19-89.16,123.87,23.87,15.74-81.8,89.17,17.16-17.61,91.52c-5,25.98-21.99,46.68-44.12,57.46Z"/>
        <path class="cls-2" d="M129.35,250.36l133.6,25.74c19.26,3.71,37.87-8.9,41.57-28.16h0l17.61-91.52"/>
      </g>
      <g>
        <path class="cls-1" d="M248.71,271.19l-127.67,62.21c-17.63,8.59-38.88,1.26-47.47-16.37-8.59-17.63-1.26-38.88,16.37-47.47l255.34-124.42c17.63-8.59,38.88-1.26,47.47,16.37,8.59,17.63,1.26,38.88-16.37,47.47l-67.83,33.05"/>
        <path class="cls-1" d="M105.89,261.79c-17.63,8.59-38.88,1.26-47.47-16.37-30.06-61.7,9.87-143.05,89.2-181.7,79.32-38.65,168-19.97,198.06,41.73,8.59,17.63,1.26,38.88-16.37,47.47"/>
        <path class="cls-1" d="M137,325.63c-17.63,8.59-24.95,29.84-16.37,47.47,12.88,26.44,44.76,37.43,71.2,24.55l191.51-93.31c26.44-12.88,37.43-44.76,24.55-71.2-8.59-17.63-29.84-24.95-47.47-16.37h0"/>
        <path class="cls-1" d="M132.54,248.8l133.6,25.74c19.26,3.71,37.87-8.9,41.57-28.16h0l17.61-91.52"/>
      </g>
    </g>
  </g>
</svg>