<?xml version="1.0" encoding="UTF-8"?>
<svg id="Capa_2" data-name="Capa 2" xmlns="http://www.w3.org/2000/svg" viewBox="0 0 201.02 93.88">
  <defs>
    <style>
      .cls-1 {
        fill: #ffe048;
      }

      .cls-1, .cls-2, .cls-3 {
        stroke: #2d2d2b;
        stroke-miterlimit: 10;
        stroke-width: 1.15px;
      }

      .cls-2 {
        fill: #6bd670;
      }

      .cls-3 {
        fill: #ff5a5a;
      }

      .cls-4 {
        fill: #2d2d2b;
      }

      .cls-5 {
        stroke: #ffe048;
      }

      .cls-5, .cls-6, .cls-7 {
        fill: none;
        stroke-linecap: round;
        stroke-linejoin: round;
        stroke-width: 2.89px;
      }

      .cls-6 {
        stroke: #ff5a5a;
      }

      .cls-7 {
        stroke: #6bd670;
      }
    </style>
  </defs>
  <g id="Capa_1-2" data-name="Capa 1">
    <g>
      <rect class="cls-1" x=".58" y="6.05" width="80.58" height="80.58" rx="14.94" ry="14.94"/>
      <g>
        <path class="cls-4" d="M10.8,56.81c-.03,12.95,60.11,13.01,60.14.06"/>
        <path class="cls-4" d="M42.08,56.9v-3.23c0-5.57,4.52-10.09,10.09-10.09h8.68c5.57,0,10.09,4.52,10.09,10.09v3.23c0,1.61-1.3,2.91-2.91,2.91h-23.03c-1.61,0-2.91-1.3-2.91-2.91Z"/>
        <path class="cls-4" d="M66.64,56.56v-2.89c0-3.2-2.59-5.79-5.79-5.79h-8.68c-3.2,0-5.79,2.59-5.79,5.79v2.89"/>
        <path class="cls-4" d="M56.51,46.39c-5.56,0-10.09-4.52-10.09-10.09s4.52-10.09,10.09-10.09,10.09,4.52,10.09,10.09-4.52,10.09-10.09,10.09Z"/>
        <circle class="cls-4" cx="56.51" cy="36.3" r="5.79"/>
        <path class="cls-5" d="M66.64,56.56v-2.89c0-3.2-2.59-5.79-5.79-5.79h-8.68c-3.2,0-5.79,2.59-5.79,5.79v2.89"/>
        <circle class="cls-5" cx="56.51" cy="36.3" r="5.79"/>
        <path class="cls-4" d="M10.8,56.81v-3.23c0-5.57,4.52-10.09,10.09-10.09h8.68c5.57,0,10.09,4.52,10.09,10.09v3.23c0,1.61-1.3,2.91-2.91,2.91H13.71c-1.61,0-2.91-1.3-2.91-2.91Z"/>
        <path class="cls-4" d="M35.35,56.47v-2.89c0-3.2-2.59-5.79-5.79-5.79h-8.68c-3.2,0-5.79,2.59-5.79,5.79v2.89"/>
        <path class="cls-4" d="M25.22,46.3c-5.56,0-10.09-4.52-10.09-10.09s4.52-10.09,10.09-10.09,10.09,4.52,10.09,10.09-4.52,10.09-10.09,10.09Z"/>
        <circle class="cls-4" cx="25.22" cy="36.22" r="5.79"/>
        <path class="cls-5" d="M35.35,56.47v-2.89c0-3.2-2.59-5.79-5.79-5.79h-8.68c-3.2,0-5.79,2.59-5.79,5.79v2.89"/>
        <circle class="cls-5" cx="25.22" cy="36.22" r="5.79"/>
        <path class="cls-4" d="M26.67,60.09v-3.23c0-5.57,4.52-10.09,10.09-10.09h8.68c5.57,0,10.09,4.52,10.09,10.09v3.23c0,1.61-1.3,2.91-2.91,2.91h-23.03c-1.61,0-2.91-1.3-2.91-2.91Z"/>
        <path class="cls-4" d="M51.22,59.75v-2.89c0-3.2-2.59-5.79-5.79-5.79h-8.68c-3.2,0-5.79,2.59-5.79,5.79v2.89"/>
        <path class="cls-4" d="M41.1,49.58c-5.56,0-10.09-4.52-10.09-10.09s4.52-10.09,10.09-10.09,10.09,4.52,10.09,10.09-4.52,10.09-10.09,10.09Z"/>
        <circle class="cls-4" cx="41.1" cy="39.49" r="5.79"/>
        <path class="cls-5" d="M51.22,59.75v-2.89c0-3.2-2.59-5.79-5.79-5.79h-8.68c-3.2,0-5.79,2.59-5.79,5.79v2.89"/>
        <circle class="cls-5" cx="41.1" cy="39.49" r="5.79"/>
      </g>
      <rect class="cls-3" x="61.69" y="5.75" width="80.58" height="80.58" rx="14.94" ry="14.94" transform="translate(13.42 -22.34) rotate(13.38)"/>
      <g>
        <path class="cls-4" d="M70.3,49.27c-3.02,12.59,55.47,26.56,58.5,13.97"/>
        <path class="cls-4" d="M100.72,56.6l.75-3.15c1.29-5.42,6.73-8.77,12.15-7.48l8.45,2.01c5.42,1.29,8.77,6.73,7.48,12.15l-.75,3.15c-.37,1.56-1.94,2.53-3.5,2.16l-22.41-5.33c-1.56-.37-2.53-1.94-2.16-3.5Z"/>
        <path class="cls-4" d="M124.68,61.95l.67-2.82c.74-3.11-1.18-6.23-4.29-6.97l-8.45-2.01c-3.11-.74-6.23,1.18-6.97,4.29l-.67,2.82"/>
        <path class="cls-4" d="M117.18,49.71c-5.41-1.29-8.77-6.73-7.48-12.15s6.73-8.77,12.15-7.48,8.77,6.73,7.48,12.15-6.73,8.77-12.15,7.48Z"/>
        <circle class="cls-4" cx="119.52" cy="39.9" r="5.79"/>
        <path class="cls-6" d="M124.68,61.95l.67-2.82c.74-3.11-1.18-6.23-4.29-6.97l-8.45-2.01c-3.11-.74-6.23,1.18-6.97,4.29l-.67,2.82"/>
        <circle class="cls-6" cx="119.52" cy="39.9" r="5.79"/>
        <path class="cls-4" d="M70.3,49.27l.75-3.15c1.29-5.42,6.73-8.77,12.15-7.48l8.45,2.01c5.42,1.29,8.77,6.73,7.48,12.15l-.75,3.15c-.37,1.56-1.94,2.53-3.5,2.16l-22.41-5.33c-1.56-.37-2.53-1.94-2.16-3.5Z"/>
        <path class="cls-4" d="M94.27,54.62l.67-2.82c.74-3.11-1.18-6.23-4.29-6.97l-8.45-2.01c-3.11-.74-6.23,1.18-6.97,4.29l-.67,2.82"/>
        <path class="cls-4" d="M86.77,42.39c-5.41-1.29-8.77-6.73-7.48-12.15s6.73-8.77,12.15-7.48c5.41,1.29,8.77,6.73,7.48,12.15-1.29,5.41-6.73,8.77-12.15,7.48Z"/>
        <circle class="cls-4" cx="89.1" cy="32.57" r="5.79"/>
        <path class="cls-6" d="M94.27,54.62l.67-2.82c.74-3.11-1.18-6.23-4.29-6.97l-8.45-2.01c-3.11-.74-6.23,1.18-6.97,4.29l-.67,2.82"/>
        <circle class="cls-6" cx="89.1" cy="32.57" r="5.79"/>
        <path class="cls-4" d="M84.98,56.13l.75-3.15c1.29-5.42,6.73-8.77,12.15-7.48l8.45,2.01c5.42,1.29,8.77,6.73,7.48,12.15l-.75,3.15c-.37,1.56-1.94,2.53-3.5,2.16l-22.41-5.33c-1.56-.37-2.53-1.94-2.16-3.5Z"/>
        <path class="cls-4" d="M108.95,61.48l.67-2.82c.74-3.11-1.18-6.23-4.29-6.97l-8.45-2.01c-3.11-.74-6.23,1.18-6.97,4.29l-.67,2.82"/>
        <path class="cls-4" d="M101.45,49.25c-5.41-1.29-8.77-6.73-7.48-12.15,1.29-5.41,6.73-8.77,12.15-7.48,5.41,1.29,8.77,6.73,7.48,12.15s-6.73,8.77-12.15,7.48Z"/>
        <circle class="cls-4" cx="103.78" cy="39.43" r="5.79"/>
        <path class="cls-6" d="M108.95,61.48l.67-2.82c.74-3.11-1.18-6.23-4.29-6.97l-8.45-2.01c-3.11-.74-6.23,1.18-6.97,4.29l-.67,2.82"/>
        <circle class="cls-6" cx="103.78" cy="39.43" r="5.79"/>
      </g>
      <rect class="cls-2" x="115.49" y="8.36" width="80.58" height="80.58" rx="14.94" ry="14.94" transform="translate(-6.42 30.61) rotate(-11)"/>
      <g>
        <path class="cls-4" d="M128.26,64.66c2.44,12.72,61.49,1.3,59.05-11.41"/>
        <path class="cls-4" d="M158.99,58.78l-.62-3.17c-1.06-5.47,2.51-10.76,7.98-11.82l8.52-1.66c5.47-1.06,10.76,2.51,11.82,7.98l.62,3.17c.31,1.58-.72,3.11-2.3,3.41l-22.61,4.39c-1.58.31-3.11-.72-3.41-2.3Z"/>
        <path class="cls-4" d="M183.03,53.76l-.55-2.84c-.61-3.14-3.65-5.19-6.78-4.58l-8.52,1.66c-3.14.61-5.19,3.65-4.58,6.78l.55,2.84"/>
        <path class="cls-4" d="M171.15,45.71c-5.46,1.06-10.76-2.52-11.82-7.98s2.52-10.76,7.98-11.82c5.46-1.06,10.76,2.52,11.82,7.98s-2.52,10.76-7.98,11.82Z"/>
        <circle class="cls-4" cx="169.23" cy="35.81" r="5.79"/>
        <path class="cls-7" d="M183.03,53.76l-.55-2.84c-.61-3.14-3.65-5.19-6.78-4.58l-8.52,1.66c-3.14.61-5.19,3.65-4.58,6.78l.55,2.84"/>
        <circle class="cls-7" cx="169.23" cy="35.81" r="5.79"/>
        <path class="cls-4" d="M128.26,64.66l-.62-3.17c-1.06-5.47,2.51-10.76,7.98-11.82l8.52-1.66c5.47-1.06,10.76,2.51,11.82,7.98l.62,3.17c.31,1.58-.72,3.11-2.3,3.41l-22.61,4.39c-1.58.31-3.11-.72-3.41-2.3Z"/>
        <path class="cls-4" d="M152.3,59.64l-.55-2.84c-.61-3.14-3.65-5.19-6.78-4.58l-8.52,1.66c-3.14.61-5.19,3.65-4.58,6.78l.55,2.84"/>
        <path class="cls-4" d="M140.42,51.59c-5.46,1.06-10.76-2.52-11.82-7.98s2.52-10.76,7.98-11.82c5.46-1.06,10.76,2.52,11.82,7.98s-2.52,10.76-7.98,11.82Z"/>
        <circle class="cls-4" cx="138.5" cy="41.69" r="5.79"/>
        <path class="cls-7" d="M152.3,59.64l-.55-2.84c-.61-3.14-3.65-5.19-6.78-4.58l-8.52,1.66c-3.14.61-5.19,3.65-4.58,6.78l.55,2.84"/>
        <circle class="cls-7" cx="138.5" cy="41.69" r="5.79"/>
        <path class="cls-4" d="M144.47,64.85l-.62-3.17c-1.06-5.47,2.51-10.76,7.98-11.82l8.52-1.66c5.47-1.06,10.76,2.51,11.82,7.98l.62,3.17c.31,1.58-.72,3.11-2.3,3.41l-22.61,4.39c-1.58.31-3.11-.72-3.41-2.3Z"/>
        <path class="cls-4" d="M168.51,59.83l-.55-2.84c-.61-3.14-3.65-5.19-6.78-4.58l-8.52,1.66c-3.14.61-5.19,3.65-4.58,6.78l.55,2.84"/>
        <path class="cls-4" d="M156.63,51.78c-5.46,1.06-10.76-2.52-11.82-7.98s2.52-10.76,7.98-11.82,10.76,2.52,11.82,7.98-2.52,10.76-7.98,11.82Z"/>
        <circle class="cls-4" cx="154.7" cy="41.88" r="5.79"/>
        <path class="cls-7" d="M168.51,59.83l-.55-2.84c-.61-3.14-3.65-5.19-6.78-4.58l-8.52,1.66c-3.14.61-5.19,3.65-4.58,6.78l.55,2.84"/>
        <circle class="cls-7" cx="154.7" cy="41.88" r="5.79"/>
      </g>
    </g>
  </g>
</svg>