<?xml version="1.0" encoding="UTF-8"?>
<svg id="Capa_2" data-name="Capa 2" xmlns="http://www.w3.org/2000/svg" viewBox="0 0 322.18 222.96">
  <defs>
    <style>
      .cls-1 {
        fill: #fff;
      }
    </style>
  </defs>
  <g id="Capa_1-2" data-name="Capa 1">
    <g>
      <path class="cls-1" d="M322.13,104.02C321.65,45.99,249.15-.73,160.18,0,71.23.75-.48,48.67,0,106.7c.01,1.5.02,5.65.03,6.17.52,61.56,63.95,110.91,162,110.09,98.64-.82,160.66-51.2,160.15-112.78l-.06-6.18v.02ZM161.92,204.39c-85.53.72-155.24-43.06-155.7-97.78-.02-2.21.11-4.38.33-6.56l.99-6.69c.15-.72.38-1.41.55-2.13,3.52,1.02,6.08,1.73,7.31,2.01,39.35,8.97,54.99,18.3,59.63,21.63,3.04-2.71,7.03-4.25,11.07-4.25h.01c4.72,0,9.15,2.02,12.3,5.54,4.94-3.18,10.96-3.86,17.06-1.74,3.99,1.37,7.14,3.91,9.16,7.39,4.07-1.3,8.68-1,13.29.99,8.87,3.81,10.16,12.02,9.98,17.22,10.54.22,19.04,8.87,19.03,19.45,0,2.52-.5,5.06-1.47,7.37,2.93,1.47,7.92,3.52,12.33,2.98,4.19-.53,5.45-1.87,5.74-2.28.03-.03.06-.08.08-.11l-11.87-13.12c-2.07-1.95-2.6-3.95-1.36-5.31.52-.58,1.24-.91,2.04-.91,1.38,0,2.56,1,3.42,1.73,6.44,5.37,14.15,13.33,14.23,13.41l.19.21c.17.2.66.61,2.3.9.55.1,1.15.16,1.78.16,1.2,0,4.24-.2,6.46-2.02.4-.35.84-.76,1.26-1.2l.46-.59c2.02-2.58.1-5.2-.3-5.71l-14.45-16.26s-.57-.54-1.05-1.2c-1.57-2.1-.86-3.48-.3-4.11.54-.57,1.24-.86,1.98-.86,1.29,0,2.49.85,3.59,1.77,3.87,3.24,9.13,8.41,14.21,13.41l3.2,3.16c.39.26,2.31,1.44,4.98,1.45,2.13,0,4.32-.73,6.49-2.16,3.02-1.96,4.42-4.37,4.28-7.34-.22-2.6-2.39-4.68-2.41-4.7l-19.88-20c-2.05-1.75-2.66-3.87-1.48-5.33.5-.63,1.35-.95,2.09-.98,1.29,0,2.42.85,3.55,1.81,3.53,2.96,11.04,9.69,22.32,19.98.65.59,1.05.95,1.11,1.01,0,0,2.06,1.42,5.1,1.44,2.01,0,4.02-.63,5.99-1.87,2.15-1.37,3.4-3.34,3.51-5.54.2-4-2.6-6.48-2.62-6.5-5.3-4.64-50.67-44.32-61.22-52.26-6.1-4.6-9.49-5.8-12.98-6.24-.37-.06-.76-.06-1.18-.07-1.4,0-3.21.25-4.69.64-5.38,1.47-12.44,6.49-17.43,10.45-6.49,5.15-12.57,9.98-18.5,11.3-1.86.41-3.9.67-6.01.63-5.59-.01-11.64-1.56-15.03-3.86-1.89-1.28-3.26-2.8-3.95-4.42-1.76-4.1.87-7.4,2.09-8.63l13.64-14.73c.1-.1.19-.19.28-.28-1.96.47-3.89,1-5.95,1.58-4.96,1.38-9.97,2.78-15.06,2.78h-.02c-1.7,0-3.39-.15-5.02-.27l-1.64-.12c-7.15-.46-29.89-6.23-49.94-14.29.02-.02.04-.04.07-.06l5.54-4.25C73.57,19.64,114.54,6.62,160.25,6.24c47.21-.39,89.58,12.78,118.16,33.86l5.49,4.27c.37.3.7.63,1.05.93l-1.79.83c-15.84,7.24-30.63,10.77-45.22,10.77h-.07c-14.01-.02-27.96-3.39-41.44-9.98-1.54-.72-15.53-7.03-29.65-7.05-.36,0-.74,0-1.1.02-22.51.49-32.32,10.29-42.72,20.65l-13.43,14.46c-.27.35-.39.56-.44.68,1.55,1.75,5.58,2.97,9.96,2.98,1.87,0,3.74-.21,5.57-.62,4.1-.91,9.72-5.37,15.16-9.68l.38-.3c6.03-4.79,12.27-9.73,18.63-11.74,2.8-.9,5.5-1.35,8.04-1.35h.03c2.74,0,4.87.53,6.4,1,3.36,1,7.19,3.22,12.77,7.43,9.13,6.85,41.1,34.63,59.69,50.89,10.35-4.56,36.57-15.34,68.84-22.48,0,0,0-.04.02-.12.04.24.12.46.17.71l.95,6.67c.13,1.64.22,3.28.24,4.94.46,54.71-68.5,99.65-154.05,100.37v-.02Z"/>
      <path class="cls-1" d="M147.67,147.21h0c-1.77,0-3.68.65-4.93,1.09-.86.29-1.38.48-1.79.48h-.27l-.37-.18c-.27-.18-.4-.44-.47-.74-.37-.54-.26-1.38.39-2.97.03-.08,2-5.58.3-10.34-.83-2.07-2.38-3.97-5.16-5.17-1.88-.82-3.71-1.21-5.42-1.22-3.74,0-6.14,1.91-7.23,3.06-.27.28-.64.59-1.13.59-.16,0-.81-.09-1.07-.89-.13-.19-.24-.45-.27-.82-.06-.8-.22-2-.68-3.28-.86-2.19-2.6-4.55-6.13-5.64-1.45-.45-2.88-.67-4.27-.67-7.31,0-11.28,6.02-11.44,6.28l-1.45,2.25-.06-.41s-.07.04-.08.04c-.3-.08-.35-2.65-.35-2.65-.07-.57-.2-1.13-.37-1.67-1.36-3.86-5-6.57-9.19-6.57-5.42,0-9.83,4.41-9.84,9.85,0,1.23.26,2.41.67,3.5,1.5,3.5,4.98,5.94,9.01,5.95,2.53,0,4.53-1.55,6.79-2.75.62-.33,1.26-.37,1.45-.1.18.25.24.53.26.83.12.25.19.53.15.87-.22,1.35-.53,4.25.4,7.29,1,2.9,3.17,5.86,7.7,7.62,1.14.45,2.29.66,3.41.67,2.03,0,4.02-.7,6.11-2.16.5-.36.89-.53,1.24-.5.25.02.63.1.89.39.2.22.28.49.3.76.16.37.18.77.11,1.18-.11.75-.16,1.91.19,3.22.7,2.1,2.43,4.48,6.64,6.19,1.45.59,2.81.89,4.08.89,2.78,0,4.69-1.4,6.19-2.79.53-.48,1-.81,1.52-.81.78,0,1.1.57,1.24,1.14.25.49.29,1.1.3,1.42.06,1.55.43,2.99.99,4.34,2,4.29,6.36,7.25,11.44,7.27,6.96,0,12.64-5.65,12.65-12.6,0-1.64-.34-3.2-.92-4.63-1.96-4.43-6.39-7.56-11.55-7.62h0Z"/>
    </g>
  </g>
</svg>