<?xml version="1.0" encoding="UTF-8"?>
<svg id="Capa_2" data-name="Capa 2" xmlns="http://www.w3.org/2000/svg" viewBox="0 0 127.92 121.73">
  <defs>
    <style>
      .cls-1 {
        fill: #ff5050;
      }

      .cls-1, .cls-2 {
        stroke: #ff5050;
        stroke-miterlimit: 10;
        stroke-width: 2px;
      }

      .cls-2 {
        fill: none;
      }
    </style>
  </defs>
  <g id="Capa_1-2" data-name="Capa 1">
    <polygon class="cls-1" points="64.01 1 64.01 90.87 49.06 118.01 47.35 120.29 11.64 94.4 13.36 92.11 34.78 69.36 4.12 63.45 1.27 62.6 14.79 20.71 17.55 21.56 45.82 34.89 42.01 3.86 42.01 1 64.01 1"/>
    <polygon class="cls-2" points="123.8 63.45 93.33 69.45 114.56 92.11 116.27 94.4 80.57 120.29 79.15 118.01 64.01 90.87 64.01 1 85.9 1 85.9 3.86 82.1 34.89 110.37 21.85 113.13 20.99 126.65 62.6 123.8 63.45"/>
  </g>
</svg>