<?xml version="1.0" encoding="UTF-8"?>
<svg id="Capa_2" data-name="Capa 2" xmlns="http://www.w3.org/2000/svg" viewBox="0 0 1948.87 302.64">
  <defs>
    <style>
      .cls-1 {
        fill: #5b5b5b;
      }
    </style>
  </defs>
  <g id="Capa_1-2" data-name="Capa 1">
    <path class="cls-1" d="M0,204.81v-26.43l1.05-.14c2.25-.31,4.5-.61,6.79-.91,25.68-3.41,363.06-7.65,464.08-33.2,108.93-27.54,275.59-9.07,277.26-8.88l1.07.12v26.46l-1.35-.15c-1.88-.22-189.1-21.14-276.32,6.27C385,195.48,2.12,204.56,1.35,204.65l-1.35.15ZM2.42,180.49v21.59c10.68-1.34,388.41-10.98,469.43-36.44,83.78-26.33,258.8-8.37,275.98-6.52v-21.58c-14.53-1.55-171.4-17.34-275.32,8.93-101.16,25.58-438.61,29.83-464.36,33.25-1.93.26-3.83.51-5.73.76Z"/>
    <path class="cls-1" d="M1948.87,204.81l-1.35-.15c-.77-.09-389.49-9.18-477.07-36.71-87.22-27.41-274.44-6.49-276.32-6.27l-1.35.15v-26.46l1.07-.12c1.67-.19,168.33-18.67,277.26,8.88,101.02,25.55,444.24,29.79,469.93,33.2,2.29.3,4.54.6,6.79.91l1.05.14v26.43ZM1337.8,151.42c48.32,0,98.66,3.31,133.37,14.21,81.02,25.46,464.59,35.11,475.27,36.44v-21.59c-1.9-.26-3.8-.51-5.73-.76-25.75-3.42-369.05-7.67-470.2-33.25-103.91-26.27-260.79-10.48-275.32-8.93v21.58c10.06-1.09,74.29-7.7,142.61-7.7Z"/>
    <path class="cls-1" d="M804.76,172.59h-47.35c-5.29,0-9.59-4.3-9.59-9.59v-21.65c0-5.29,4.3-9.59,9.59-9.59h47.35v40.82ZM757.41,134.19c-3.95,0-7.16,3.21-7.16,7.16v21.65c0,3.95,3.21,7.16,7.16,7.16h44.93v-35.97h-44.93Z"/>
    <path class="cls-1" d="M838.89,192.97h-19.3c-9.51,0-17.25-7.74-17.25-17.25v-52.3c0-9.51,7.74-17.25,17.25-17.25h19.3v86.8ZM819.59,108.6c-8.17,0-14.83,6.65-14.83,14.83v52.3c0,8.18,6.65,14.83,14.83,14.83h16.88v-81.95h-16.88Z"/>
    <path class="cls-1" d="M906.68,218.09h-52.96c-9.51,0-17.25-7.74-17.25-17.25v-101.6c0-9.51,7.74-17.25,17.25-17.25h52.96v136.09ZM853.72,84.42c-8.17,0-14.83,6.65-14.83,14.83v101.6c0,8.17,6.65,14.83,14.83,14.83h50.54V84.42h-50.54Z"/>
    <path class="cls-1" d="M918.74,225.2c-7.99,0-14.48-6.5-14.48-14.48v-121.35c0-7.99,6.5-14.48,14.48-14.48s14.48,6.5,14.48,14.48v121.35c0,7.99-6.5,14.48-14.48,14.48ZM918.74,77.31c-6.65,0-12.06,5.41-12.06,12.06v121.35c0,6.65,5.41,12.06,12.06,12.06s12.06-5.41,12.06-12.06v-121.35c0-6.65-5.41-12.06-12.06-12.06Z"/>
    <path class="cls-1" d="M1184.19,172.59h-47.19v-40.82h47.19c6.07,0,11.01,4.94,11.01,11.01v18.8c0,6.07-4.94,11.01-11.01,11.01ZM1139.42,170.16h44.77c4.73,0,8.58-3.85,8.58-8.59v-18.8c0-4.73-3.85-8.59-8.58-8.59h-44.77v35.97Z"/>
    <path class="cls-1" d="M1122.01,194.55h-21.04v-85.85h21.04c9.6,0,17.41,7.81,17.41,17.41v51.04c0,9.6-7.81,17.41-17.41,17.41ZM1103.39,192.13h18.62c8.26,0,14.98-6.72,14.98-14.98v-51.04c0-8.26-6.72-14.98-14.98-14.98h-18.62v81Z"/>
    <path class="cls-1" d="M1091.52,225.2c-6.55,0-11.88-5.33-11.88-11.88v-126.56c0-6.55,5.33-11.88,11.88-11.88s11.88,5.33,11.88,11.88v126.56c0,6.55-5.33,11.88-11.88,11.88ZM1091.52,77.31c-5.21,0-9.45,4.24-9.45,9.45v126.56c0,5.21,4.24,9.45,9.45,9.45s9.45-4.24,9.45-9.45v-126.56c0-5.21-4.24-9.45-9.45-9.45Z"/>
    <path class="cls-1" d="M1082.06,218.09h-56.12c-9.6,0-17.41-7.81-17.41-17.41v-101.28c0-9.6,7.81-17.41,17.41-17.41h56.12v136.09ZM1025.94,84.42c-8.26,0-14.98,6.72-14.98,14.98v101.28c0,8.26,6.72,14.98,14.98,14.98h53.69V84.42h-53.69Z"/>
    <path class="cls-1" d="M1010.96,128.19h-35.97c-6.07,0-11.01-4.94-11.01-11.01s4.94-11.01,11.01-11.01h35.97v22.02ZM974.99,108.6c-4.73,0-8.58,3.85-8.58,8.58s3.85,8.59,8.58,8.59h33.55v-17.17h-33.55Z"/>
    <path class="cls-1" d="M1010.96,195.97h-35.97c-6.07,0-11.01-4.94-11.01-11.01v-1.74c0-6.07,4.94-11.01,11.01-11.01h35.97v23.75ZM974.99,174.64c-4.73,0-8.58,3.85-8.58,8.58v1.74c0,4.73,3.85,8.58,8.58,8.58h33.55v-18.91h-33.55Z"/>
    <path class="cls-1" d="M1043.19,162.32h-34.66v-21.86h34.66v21.86ZM1010.96,159.89h29.81v-17.01h-29.81v17.01Z"/>
    <rect class="cls-1" x="857.43" y="123.74" width="32.23" height="6.48" rx="3.24" ry="3.24"/>
    <rect class="cls-1" x="796.8" y="147.56" width="54.12" height="6.48" rx="3.18" ry="3.18" transform="translate(974.65 -673.06) rotate(90)"/>
    <rect class="cls-1" x="894.34" y="252.99" width="46.41" height="6.48" rx="2.95" ry="2.95" transform="translate(1747.53 -211.4) rotate(135)"/>
    <rect class="cls-1" x="999.94" y="252.99" width="46.41" height="6.48" rx="2.95" ry="2.95" transform="translate(480.85 -648.43) rotate(45)"/>
    <rect class="cls-1" x="947.14" y="276.19" width="46.41" height="6.48" rx="2.95" ry="2.95" transform="translate(1249.78 -690.92) rotate(90)"/>
    <rect class="cls-1" x="999.94" y="43.18" width="46.41" height="6.48" rx="2.95" ry="2.95" transform="translate(266.85 737.07) rotate(-45)"/>
    <rect class="cls-1" x="894.34" y="43.18" width="46.41" height="6.48" rx="2.95" ry="2.95" transform="translate(1533.53 728.04) rotate(-135)"/>
    <rect class="cls-1" x="947.14" y="19.97" width="46.41" height="6.48" rx="2.95" ry="2.95" transform="translate(947.14 993.56) rotate(-90)"/>
    <rect class="cls-1" x="1093.14" y="147.56" width="54.12" height="6.48" rx="3.18" ry="3.18" transform="translate(1270.99 -969.4) rotate(90)"/>
    <rect class="cls-1" x="857.43" y="140.01" width="32.23" height="6.48" rx="3.24" ry="3.24"/>
    <rect class="cls-1" x="857.43" y="156.29" width="32.23" height="6.48" rx="3.24" ry="3.24"/>
    <rect class="cls-1" x="857.43" y="171.38" width="32.23" height="6.48" rx="3.24" ry="3.24"/>
  </g>
</svg>