<?xml version="1.0" encoding="UTF-8"?>
<svg id="Capa_2" data-name="Capa 2" xmlns="http://www.w3.org/2000/svg" viewBox="0 0 356.87 356.87">
  <defs>
    <style>
      .cls-1 {
        fill: none;
      }

      .cls-2 {
        fill: #ff5050;
      }

      .cls-3 {
        fill: #262624;
      }
    </style>
  </defs>
  <g id="Capa_1-2" data-name="Capa 1">
    <g>
      <circle class="cls-1" cx="178.43" cy="178.43" r="178.43"/>
      <g>
        <path class="cls-2" d="M139.79,225.44c-13.02,0-23.04-3.71-30.06-11.14s-10.52-18.91-10.52-34.46c0-10.87,2.49-20.48,7.46-28.85,4.97-8.37,11.97-14.86,20.98-19.46,9.01-4.61,19.31-6.91,30.92-6.91,13.02,0,24.32,1.7,33.91,5.09,1.93,1.01,2.73,2.59,2.41,4.75-.05.18-.5,4.01-1.38,11.49-.87,7.47-1.49,12.56-1.86,15.27-.18,1.47-.85,2.41-2,2.82-1.15.41-2.22.28-3.23-.41-6.51-3.44-14.31-5.16-23.38-5.16-6.1,0-10.79,1.73-14.06,5.19-3.28,3.46-4.92,8.72-4.92,15.78,0,8.44,3.05,12.66,9.15,12.66,1.93,0,3.72-.96,5.4-2.89,1.67-1.93,2.51-4.54,2.51-7.84,0-3.12-.44-5.41-1.31-6.88-.5-1.28-.5-2.4,0-3.33.5-.94,1.4-1.43,2.68-1.48,5.5-.41,17.42-1.19,35.76-2.34,1.28-.04,2.36.32,3.23,1.1.87.78,1.35,1.77,1.44,2.96,1.1,13.8,1.65,30.01,1.65,48.62,0,1.19-.39,2.18-1.17,2.96-.78.78-1.79,1.24-3.03,1.38-1.83.18-6.72.28-14.65.28s-12.82-.09-14.65-.28c-1.42-.23-2.53-.69-3.34-1.38-.8-.69-1.11-1.58-.93-2.68.59-5.68.85-9.74.76-12.17.09-2.29-.32-3.47-1.24-3.54-.92-.07-1.83,1.02-2.75,3.27-4.54,11.74-12.47,17.61-23.8,17.61Z"/>
        <path class="cls-2" d="M233.46,124.89c7.38,0,13.48.14,18.29.41,1.15.05,2.14.49,2.99,1.34.85.85,1.23,1.73,1.13,2.65-.6,9.67-1.7,19.64-3.3,29.88-1.61,10.25-3.33,18.58-5.16,25-.23.78-.68,1.5-1.34,2.17-.67.67-1.43,1.02-2.3,1.07-3.44.32-6.88.48-10.32.48-3.07,0-6.65-.16-10.73-.48-.73-.05-1.44-.41-2.13-1.1-.69-.69-1.15-1.4-1.38-2.13-5-20.45-8-38.74-9.01-54.88-.09-.96.27-1.86,1.1-2.68.83-.83,1.79-1.26,2.89-1.31,5.23-.28,11.65-.41,19.26-.41ZM233.32,224.75c-5.14,0-9.28-1.47-12.45-4.4-3.16-2.93-4.75-7.01-4.75-12.24s1.58-9.29,4.75-12.21c3.16-2.91,7.31-4.37,12.45-4.37s9.29,1.47,12.45,4.4c3.16,2.93,4.75,7.06,4.75,12.38s-1.59,9.16-4.78,12.07c-3.19,2.91-7.32,4.37-12.41,4.37Z"/>
      </g>
      <path class="cls-2" d="M89.9,62.95c-14.14,10.26-26.1,23.37-34.9,38.48l11.23,4.8c7.89-13.05,18.33-24.4,30.66-33.33l-6.98-9.95Z"/>
      <path class="cls-2" d="M262.58,72.91c12.32,8.92,22.76,20.28,30.66,33.33l11.23-4.8c-8.8-15.11-20.76-28.23-34.9-38.48l-6.98,9.95Z"/>
      <g>
        <g>
          <path class="cls-3" d="M133.97,60.37l-5.17,2.66c-.57-.61-1.33-1.58-1.72-2.14-.48,2.72-2.53,5-6.18,6.89-8.05,4.14-15.24.14-18.99-7.15-4.15-8.06-2.47-16.35,6.3-20.86,7.94-4.09,13.92-1.43,16.47,2.37l-7.63,3.92c-1.1-1.2-2.98-2.45-6.09-.84-4.4,2.26-3.4,6.85-1.24,11.06,2.14,4.15,5.46,7.53,9.7,5.35,3.88-2,3.11-5.19,2.21-6.93l-.09-.17-4.82,2.48-2.77-5.39,12.27-6.31,7.75,15.08Z"/>
          <path class="cls-3" d="M140.7,28.07l3.93,17.73c.91,4.13,3.26,5.1,5.82,4.53,2.78-.61,4.01-2.66,3.15-6.52l-3.92-17.73,8.49-1.88,3.73,16.88c2.12,9.58-2.9,13.76-10.25,15.38-7.62,1.68-13.6-.23-15.67-9.6l-3.75-16.92,8.46-1.87Z"/>
          <path class="cls-3" d="M176.77,43.95c.44,2.58,2.22,3.7,5.01,3.76,2.62.05,3.85-.84,3.88-2.55.03-1.94-1.26-2.7-5.9-3.91-8.66-2.29-10.34-5.5-10.25-9.48.1-4.95,3.83-9.03,12.04-8.86,8.54.17,11.94,4.58,12.26,9.24l-8.35-.17c-.2-1.59-.97-3.22-4.04-3.28-1.98-.04-3.21.68-3.25,2.28-.03,1.6,1.04,2.25,5.56,3.46,9.05,2.46,10.79,5.77,10.71,9.97-.11,5.54-4.47,9.31-13.14,9.13-8.16-.17-12.41-4.06-12.95-9.75l8.42.17Z"/>
          <path class="cls-3" d="M209.82,33.05l-8.2-2,1.52-6.23,24.74,6.03-1.51,6.23-8.13-1.98-5.47,22.46-8.42-2.05,5.47-22.46Z"/>
          <path class="cls-3" d="M255.74,60.28c-3.8,7.44-11.46,11.37-20.47,6.76-8.84-4.52-9.95-12.89-6.15-20.33,3.87-7.57,11.66-11.25,20.49-6.74,8.29,4.24,10.15,12.45,6.13,20.3ZM237.12,50.66c-2.47,4.83-2.58,9,1.23,10.95,4.01,2.05,7.15-.84,9.44-5.32,2.46-4.8,2.76-8.84-1.27-10.9-3.74-1.91-6.89.37-9.4,5.26Z"/>
        </g>
        <g>
          <path class="cls-3" d="M63.96,120.89l-3.89,9.82c-2.88,7.27-9.15,9.67-15.74,7.07-6.59-2.61-10.05-8.75-7.08-16.24l3.85-9.72,22.85,9.06ZM43.3,120.46l-1.02,2.58c-1.44,3.62.52,6.14,4.8,7.82,3.79,1.49,6.88,1.12,8.33-2.53l1.04-2.65-13.16-5.22Z"/>
          <path class="cls-3" d="M37.27,148.97c-1.86-.35-3.85,0-4.24,2.03-.3,1.63.3,2.22,1.2,2.75l-1.27,6.73c-2.32-1.13-5.72-3.94-4.5-10.46,1.31-6.97,6.49-8.64,11.3-7.73,5.56,1.05,9.27,4.79,8.01,11.5-1.34,7.13-6.59,8.4-11.19,7.54-.63-.11-1.08-.21-1.58-.36l2.26-12ZM39.88,154.84c1.72.3,3.27.08,3.64-1.88.34-1.83-.88-2.79-2.68-3.24l-.96,5.12Z"/>
          <path class="cls-3" d="M32.67,185.93c-3.36-.6-6.91-2.83-6.83-9.3.08-6.6,4.45-9.43,9.78-9.37,5.63.07,9.95,3.63,9.86,9.87-.09,7.06-4.87,8.78-7.13,8.86l.08-6.63c1.31-.17,2.37-.73,2.39-2.26.03-1.76-1.62-2.67-5.05-2.71-3.86-.06-5.28.91-5.31,2.54-.02,1.41,1.05,2.04,2.3,2.37l-.08,6.62Z"/>
          <path class="cls-3" d="M45.59,190.84l.84,6.92-18.6,2.25-.84-6.92,18.61-2.25ZM52.71,189.98l.84,6.92-4.82.59-.84-6.92,4.82-.59Z"/>
          <path class="cls-3" d="M59.04,220.06l-19.54,5.28c-1.82.5-3.92,1.04-5.47,1.51l-1.76-6.52c.5-.25,1.23-.54,1.67-.7-1.57-.54-2.8-1.73-3.5-4.33-1.28-4.75,2.09-8.42,7.4-9.86,5.51-1.49,10.4.38,11.78,5.46.57,2.14.33,3.85-.38,4.58l7.97-2.16,1.83,6.74ZM39.86,212.3c-3.17.87-4.56,2.23-4.05,4.12.69,2.55,3.06,2.15,5.54,1.48,3.04-.82,4.72-1.56,4.06-3.98-.52-1.89-2.32-2.48-5.55-1.62Z"/>
          <path class="cls-3" d="M54.34,227.24l2.83,6.38-17.14,7.59-2.83-6.38,17.14-7.59ZM60.89,224.33l2.82,6.38-4.44,1.97-2.83-6.37,4.45-1.98Z"/>
          <path class="cls-3" d="M55.12,241.94c1.55-.89,3.21-1.86,4.65-2.71l3.37,5.92c-.46.36-1.85,1.26-2.56,1.66,1.93-.27,4.29.49,5.91,3.28l-5.55,3.15c-1.81-3.52-3.47-4.62-7.29-2.44l-6.7,3.81-3.45-6.06,11.63-6.62Z"/>
          <path class="cls-3" d="M92.6,271.25l-14.8,13.79c-1.37,1.3-2.96,2.76-4.11,3.89l-4.6-4.93c.33-.45.83-1.05,1.14-1.4-1.63.25-3.27-.24-5.11-2.19-3.36-3.6-2.09-8.42,1.93-12.16,4.17-3.89,9.37-4.54,12.95-.68,1.51,1.62,2.09,3.23,1.8,4.21l6.04-5.63,4.75,5.1ZM72.05,273.35c-2.39,2.24-2.98,4.1-1.65,5.53,1.8,1.92,3.71.47,5.58-1.28,2.3-2.15,3.43-3.59,1.72-5.42-1.33-1.44-3.2-1.11-5.65,1.17Z"/>
          <path class="cls-3" d="M101.52,298.85c-3.47,4.7-8.77,5.73-13.93,1.92-5.34-3.95-5.38-9.4-2.17-13.75,3.36-4.54,8.61-5.88,14.02-1.88,4.96,3.67,5.46,9.16,2.09,13.72ZM91.16,291.22c-2.11,2.86-2.21,4.74-.71,5.85,1.47,1.1,3.22.41,5.28-2.38,2.3-3.11,2.3-4.75.78-5.88-1.4-1.02-3.04-.71-5.35,2.41ZM110.43,284.28l-8.22.57-4.36-3.22,6.6-1.77,5.97,4.43Z"/>
          <path class="cls-3" d="M109.05,298.1c.71-1.45,1.47-3.03,2.1-4.38l6.09,3c-.1.47-.5,1.44-.71,1.95,1.12-.64,3.14-1.25,5.89.09,3.36,1.66,4.37,4.98,2.35,9.09l-5.33,10.83-6.23-3.06,4.97-10.11c.79-1.62.77-2.75-.66-3.46-1.31-.64-2.46-.36-3.62,2l-4.72,9.58-6.25-3.07,6.13-12.44Z"/>
          <path class="cls-3" d="M153.04,302.2l-5.56,19.45c-.51,1.81-1.12,3.89-1.52,5.47l-6.48-1.86c.04-.56.17-1.33.27-1.79-1.28,1.06-2.93,1.51-5.52.75-4.74-1.34-6.13-6.13-4.61-11.41,1.56-5.49,5.67-8.71,10.74-7.27,2.13.6,3.46,1.69,3.72,2.68l2.27-7.95,6.71,1.92ZM136.51,314.63c-.9,3.15-.44,5.05,1.44,5.58,2.53.73,3.41-1.52,4.12-3.98.86-3.02,1.08-4.84-1.33-5.53-1.88-.53-3.32.7-4.24,3.92Z"/>
          <path class="cls-3" d="M161.81,321.44c-.18,1.88.36,3.83,2.39,4.03,1.64.15,2.18-.5,2.62-1.44l6.8.67c-.93,2.4-3.41,6.03-10,5.39-7.03-.71-9.14-5.7-8.66-10.57.56-5.6,3.95-9.62,10.72-8.94,7.22.7,8.93,5.81,8.47,10.46-.06.63-.12,1.09-.24,1.59l-12.11-1.2ZM167.42,318.34c.15-1.73-.2-3.25-2.18-3.45-1.85-.2-2.69,1.1-2.99,2.93l5.18.52Z"/>
          <path class="cls-3" d="M209.38,320.9c-.06,3.42-1.69,7.26-8.08,8.22-6.51.98-10.02-2.87-10.8-8.14-.84-5.56,1.97-10.39,8.15-11.31,6.97-1.05,9.43,3.39,9.89,5.61l-6.56.98c-.38-1.27-1.1-2.22-2.61-2-1.74.27-2.37,2.04-1.86,5.42.57,3.81,1.74,5.07,3.36,4.82,1.4-.21,1.86-1.35,1.97-2.64l6.55-.98Z"/>
          <path class="cls-3" d="M233.37,310.34c1.87,5.54-.3,10.5-6.41,12.56-6.3,2.11-10.81-.96-12.55-6.09-1.8-5.36.11-10.46,6.48-12.61,5.86-1.97,10.66.75,12.47,6.14ZM221.17,314.49c1.14,3.39,2.64,4.53,4.4,3.94,1.75-.6,2.17-2.43,1.05-5.72-1.23-3.67-2.57-4.61-4.37-3.99-1.64.54-2.34,2.08-1.09,5.77Z"/>
          <path class="cls-3" d="M237.34,304.45c-.88-1.48-1.8-3.04-2.65-4.4l5.75-3.42c.28.34.84,1.05,1.21,1.61.22-1.62.97-3.42,3.29-4.8,2.42-1.44,4.29-.94,5.43-.22.28-1.65.94-3.57,3.62-5.15,3-1.8,6.35-1.23,8.81,2.92l6.23,10.48-5.86,3.48-5.92-9.97c-.71-1.19-1.69-1.93-2.97-1.17-1.35.81-1.34,1.98-.24,3.83l5.6,9.42-5.89,3.5-5.89-9.91c-.73-1.21-1.61-2.02-2.96-1.23-1.33.8-1.44,1.87-.19,3.98l5.51,9.27-5.91,3.5-6.96-11.7Z"/>
          <path class="cls-3" d="M275.42,285.03c1.3,1.38,3.13,2.26,4.62.85,1.2-1.12,1.07-1.97.66-2.92l5-4.68c1.21,2.29,2.3,6.56-2.54,11.1-5.17,4.84-10.34,3.15-13.69-.43-3.87-4.13-4.66-9.33.32-14.01,5.3-4.97,10.28-2.9,13.49.52.43.46.75.81,1.05,1.23l-8.91,8.35ZM276.79,278.76c-1.21-1.26-2.59-2-4.05-.62-1.35,1.26-.94,2.76.25,4.19l3.8-3.57Z"/>
          <path class="cls-3" d="M284.31,268.28c-1.42-1.1-2.95-2.28-4.28-3.28l4.19-5.37c.51.29,1.86,1.24,2.51,1.74-.97-1.68-1.17-4.13.79-6.69l5.03,3.92c-2.55,3-2.95,4.96.52,7.66l6.07,4.75-4.29,5.5-10.53-8.24Z"/>
          <path class="cls-3" d="M307.53,265.95c-2.91-3.99-5.78-6.35-8.14-8.11l3.46-5.44c3.16,2.51,6.13,6,7.37,9.33l-2.69,4.23Z"/>
          <path class="cls-3" d="M298.6,231.15l-4.5-1.84,2.65-6.44,4.49,1.86-2.64,6.42ZM303.36,225.61l16.07,6.62c5.19,2.14,7.5,4.23,5.15,9.95-.22.53-.58,1.28-.83,1.79l-4.62-1.91c.05-.13.1-.25.15-.38.53-1.3.28-1.9-1.23-2.51l-17.34-7.13,2.64-6.42Z"/>
          <path class="cls-3" d="M322.41,205.76c1.61.41,4.06,1.04,5.8,1.45l-1.7,6.62c-.46-.04-1.47-.25-1.95-.36,1.42,1.62,1.66,3.34,1.07,5.61-1,3.89-3.89,5.36-8.19,4.24l-11.93-3.04,1.73-6.74,10.8,2.78c1.65.42,2.92.25,3.31-1.27.42-1.58-.31-2.46-3-3.14l-10.02-2.58,1.73-6.74,12.34,3.18Z"/>
          <path class="cls-3" d="M315.89,197.08c-1.62-.12-3.38-.23-4.86-.3l.48-6.78c.48-.08,1.51-.08,2.07-.07-1.02-.8-2.35-2.45-2.14-5.5.26-3.74,2.96-5.93,7.52-5.6l12.05.84-.49,6.94-11.24-.78c-1.8-.14-2.85.31-2.96,1.91-.1,1.45.6,2.43,3.22,2.61l10.66.75-.49,6.95-13.84-.98Z"/>
          <path class="cls-3" d="M312.16,174.33l-.22-2.69-4.84.39-.55-6.88,4.85-.39-.27-3.27,4.69-.38.26,3.28,8.02-.64c1.15-.08,1.57-.49,1.45-1.94-.02-.27-.05-.61-.12-.97l4.3-.34c.44,1.06.66,2.86.75,4.01.34,4.43-1.71,5.84-5.23,6.11l-8.63.68.21,2.65-4.68.38Z"/>
          <path class="cls-3" d="M315.51,136.44c5.7-1.31,10.42,1.34,11.87,7.61,1.49,6.48-2.02,10.68-7.3,11.89-5.51,1.27-10.39-1.13-11.91-7.68-1.4-6.03,1.8-10.54,7.34-11.82ZM318.45,149.01c3.48-.8,4.77-2.18,4.34-4-.41-1.8-2.18-2.41-5.58-1.63-3.76.88-4.83,2.12-4.4,3.96.38,1.69,1.85,2.54,5.65,1.66Z"/>
          <path class="cls-3" d="M314.55,123.94c1.01-.72,1.24-1.89.66-3.31-.52-1.27-1.14-1.66-1.94-1.34-.85.35-.84,1.24-.43,3.74,1.09,6.52-.54,8.19-2.99,9.19-2.53,1.03-6.23.47-8.64-5.47-2.31-5.65-.23-8.86,2.14-10.04l2.36,5.79c-.56.38-1.28,1.12-.58,2.85.47,1.17,1.12,1.39,1.72,1.16.68-.28.74-.97.22-4.05-1.01-6.04.43-8.01,3.16-9.13,3.1-1.27,6.7-.1,9.12,5.85,2.3,5.67.55,9.14-2.37,10.76l-2.44-6Z"/>
        </g>
      </g>
    </g>
  </g>
</svg>