<?xml version="1.0" encoding="UTF-8"?>
<svg id="Capa_2" data-name="Capa 2" xmlns="http://www.w3.org/2000/svg" viewBox="0 0 259.59 167.04">
  <defs>
    <style>
      .cls-1 {
        fill: #ffeecf;
      }

      .cls-2 {
        fill: #ff5050;
      }
    </style>
  </defs>
  <g id="Capa_1-2" data-name="Capa 1">
    <path class="cls-2" d="M67.23,167.04c-21.58,0-38.17-6.15-49.79-18.46C5.81,136.28,0,117.25,0,91.5c0-18,4.12-33.94,12.36-47.8,8.24-13.86,19.83-24.61,34.75-32.25C62.04,3.82,79.12,0,98.34,0c21.57,0,40.3,2.81,56.17,8.43,3.19,1.67,4.52,4.29,3.99,7.86-.08.3-.84,6.65-2.28,19.03-1.44,12.38-2.47,20.81-3.08,25.3-.3,2.43-1.41,3.99-3.3,4.67-1.9.68-3.68.46-5.36-.68-10.79-5.7-23.7-8.55-38.74-8.55-10.1,0-17.87,2.87-23.3,8.6-5.43,5.74-8.15,14.45-8.15,26.15,0,13.98,5.05,20.97,15.16,20.97,3.19,0,6.17-1.6,8.94-4.79,2.77-3.19,4.16-7.52,4.16-12.99,0-5.17-.72-8.96-2.17-11.4-.84-2.12-.84-3.97,0-5.53.83-1.56,2.32-2.37,4.44-2.45,9.12-.68,28.87-1.97,59.25-3.87,2.12-.08,3.91.53,5.36,1.82,1.44,1.29,2.24,2.92,2.39,4.9,1.82,22.87,2.73,49.72,2.73,80.56,0,1.98-.65,3.61-1.94,4.9s-2.96,2.05-5.01,2.28c-3.04.3-11.13.46-24.27.46s-21.23-.15-24.27-.46c-2.36-.38-4.2-1.14-5.53-2.28-1.33-1.14-1.84-2.62-1.54-4.44.99-9.42,1.41-16.14,1.25-20.17.15-3.8-.53-5.75-2.05-5.87-1.52-.11-3.04,1.69-4.56,5.41-7.52,19.45-20.66,29.17-39.42,29.17Z"/>
    <path class="cls-1" d="M222.42.46c12.23,0,22.33.23,30.31.68,1.9.08,3.55.82,4.96,2.22,1.4,1.41,2.03,2.87,1.88,4.39-.99,16.03-2.81,32.53-5.47,49.51-2.66,16.98-5.51,30.79-8.55,41.42-.38,1.29-1.12,2.49-2.22,3.59-1.1,1.1-2.38,1.69-3.82,1.77-5.7.53-11.39.8-17.09.8-5.09,0-11.02-.26-17.78-.8-1.22-.07-2.39-.68-3.53-1.82s-1.9-2.32-2.28-3.53c-8.28-33.88-13.26-64.19-14.93-90.93-.15-1.59.46-3.08,1.82-4.44,1.37-1.37,2.96-2.09,4.79-2.17,8.66-.46,19.29-.68,31.91-.68ZM222.19,165.91c-8.51,0-15.38-2.43-20.62-7.29-5.24-4.86-7.86-11.62-7.86-20.28s2.62-15.4,7.86-20.22c5.24-4.82,12.12-7.24,20.62-7.24s15.38,2.43,20.62,7.29c5.24,4.86,7.86,11.7,7.86,20.51s-2.64,15.17-7.92,20c-5.28,4.83-12.13,7.24-20.57,7.24Z"/>
  </g>
</svg>