<?xml version="1.0" encoding="UTF-8"?>
<svg id="Capa_2" data-name="Capa 2" xmlns="http://www.w3.org/2000/svg" viewBox="0 0 472.2 83.11">
  <defs>
    <style>
      .cls-1 {
        fill: #ffeecf;
      }

      .cls-2 {
        fill: #262624;
      }
    </style>
  </defs>
  <g id="Capa_1-2" data-name="Capa 1">
    <path class="cls-1" d="M33.45,83.11c-10.73,0-18.99-3.06-24.77-9.18C2.89,67.8,0,58.34,0,45.52c0-8.96,2.05-16.88,6.15-23.78,4.1-6.9,9.86-12.25,17.29-16.04C30.87,1.9,39.36,0,48.93,0c10.73,0,20.05,1.4,27.95,4.2,1.59.83,2.25,2.14,1.98,3.91-.04.15-.42,3.31-1.13,9.47-.72,6.16-1.23,10.36-1.53,12.59-.15,1.21-.7,1.98-1.64,2.32-.95.34-1.83.23-2.67-.34-5.37-2.83-11.79-4.25-19.28-4.25-5.03,0-8.89,1.43-11.59,4.28-2.7,2.85-4.05,7.19-4.05,13.01,0,6.96,2.51,10.43,7.54,10.43,1.59,0,3.07-.79,4.45-2.38,1.38-1.59,2.07-3.74,2.07-6.46,0-2.57-.36-4.46-1.08-5.67-.42-1.06-.42-1.97,0-2.75.42-.77,1.15-1.18,2.21-1.22,4.54-.34,14.36-.98,29.48-1.93,1.06-.04,1.95.26,2.67.91.72.64,1.11,1.46,1.19,2.44.91,11.38,1.36,24.74,1.36,40.08,0,.98-.32,1.79-.96,2.44s-1.47,1.02-2.49,1.13c-1.51.15-5.54.23-12.08.23s-10.56-.08-12.08-.23c-1.17-.19-2.09-.57-2.75-1.13-.66-.57-.92-1.3-.77-2.21.49-4.69.7-8.03.62-10.04.08-1.89-.26-2.86-1.02-2.92-.76-.06-1.51.84-2.27,2.69-3.74,9.68-10.28,14.51-19.62,14.51Z"/>
    <path class="cls-1" d="M151.94,81.16c-5.22,1.3-11.3,1.96-18.25,1.96s-13.03-.65-18.23-1.96c-5.2-1.3-9.7-3.35-13.52-6.15-3.82-2.8-6.7-6.54-8.65-11.22s-2.92-10.28-2.92-16.78c-.11-11.11,1.3-25.49,4.25-43.14.11-.79.48-1.46,1.11-2.01.62-.55,1.35-.86,2.18-.94,3.51-.3,8.35-.45,14.51-.45,6.61,0,11.68.15,15.19.45,1.02.08,1.88.49,2.58,1.25.7.76.97,1.62.82,2.61-1.17,6.27-2.13,12.79-2.86,19.56s-1.11,12.47-1.11,17.12c0,3.55.52,6.45,1.56,8.7,1.04,2.25,2.73,3.37,5.07,3.37,4.46,0,6.69-4.03,6.69-12.08,0-8.88-1.3-21.11-3.91-36.68-.15-.98.1-1.85.77-2.61.66-.76,1.52-1.17,2.58-1.25,3.63-.3,8.86-.45,15.7-.45,5.82,0,10.45.15,13.89.45.83.08,1.57.38,2.21.91.64.53,1.04,1.21,1.19,2.04,2.87,18.71,4.31,33.09,4.31,43.14-.04,6.5-1.03,12.09-2.98,16.78-1.95,4.69-4.83,8.43-8.65,11.22-3.82,2.8-8.33,4.85-13.55,6.15Z"/>
    <path class="cls-1" d="M219.57,83.11c-4.95,0-10.95-.44-18-1.3-7.05-.87-13.01-1.98-17.89-3.35-.64-.23-1.2-.65-1.67-1.28-.47-.62-.73-1.31-.77-2.07-.04-1.17-.17-4.83-.4-10.97-.23-6.14-.36-10.8-.4-13.97-.04-1.74.62-2.83,1.98-3.29,1.36-.45,2.59-.09,3.68,1.08,3.48,2.68,7.34,4.71,11.59,6.07,4.25,1.36,8.51,2.04,12.78,2.04,5.82,0,8.81-1.81,8.96-5.44,0-1.13-.65-2.15-1.96-3.06-1.3-.91-3-1.7-5.07-2.38-2.08-.68-4.39-1.39-6.95-2.13-2.55-.74-5.09-1.66-7.62-2.78-2.53-1.11-4.85-2.4-6.95-3.86-2.1-1.45-3.81-3.37-5.13-5.75-1.32-2.38-1.98-5.1-1.98-8.16,0-7.79,2.97-13.48,8.9-17.09,5.93-3.61,14.93-5.41,26.99-5.41s23.04,1.04,31.46,3.12c1.55.45,2.44,1.47,2.66,3.06,1.17,12.78,1.79,19.84,1.87,21.2.15,1.96-.37,3.19-1.56,3.68-1.19.49-2.33.19-3.43-.91-2.83-1.59-6.02-2.86-9.55-3.83-3.54-.96-6.85-1.5-9.95-1.62-3.78-.04-6.76.36-8.93,1.19-2.17.83-3.26,1.98-3.26,3.46,0,.95.47,1.77,1.42,2.47.94.7,2.2,1.3,3.77,1.81,1.57.51,3.38,1,5.44,1.47,2.06.47,4.22,1,6.49,1.59,2.27.59,4.54,1.24,6.8,1.96,2.27.72,4.43,1.66,6.49,2.83,2.06,1.17,3.87,2.5,5.44,4s2.82,3.36,3.74,5.61c.93,2.25,1.39,4.75,1.39,7.51-.04,7.97-3.54,14.05-10.52,18.23-6.97,4.18-16.94,6.26-29.91,6.26Z"/>
    <path class="cls-1" d="M300.02,82.54c-9.11,0-15.17-.15-18.2-.45-1.13-.15-2.03-.66-2.69-1.53-.66-.87-.9-1.83-.71-2.89.91-6.01,2.11-14.49,3.6-25.43s2.39-17.43,2.69-19.47c.49-2.04.3-3.6-.57-4.68-.87-1.08-2.04-1.62-3.51-1.62-1.36,0-3.04.49-5.05,1.47-2,.98-4.22,2.23-6.66,3.74s-4.15,2.51-5.13,3c-.83.87-1.78.99-2.83.37-1.06-.62-1.59-1.71-1.59-3.26.34-12.32.81-21.56,1.42-27.72.11-2,1.27-3.06,3.46-3.17,6.27-.3,18.08-.45,35.43-.45s29.16.15,35.43.45c2.19.11,3.34,1.17,3.46,3.17.26,2.76.57,7.62.91,14.57.34,6.96.51,11.42.51,13.38,0,1.55-.53,2.6-1.59,3.15-1.06.55-2,.39-2.83-.48-.98-.49-2.7-1.49-5.16-3-2.46-1.51-4.68-2.76-6.66-3.74-1.98-.98-3.66-1.47-5.02-1.47-1.44,0-2.58.54-3.43,1.62-.85,1.08-1.03,2.64-.54,4.68.3,2.04,1.2,8.53,2.69,19.47s2.69,19.42,3.6,25.43c.19,1.06-.04,2.02-.68,2.89-.64.87-1.53,1.38-2.66,1.53-2.95.3-8.84.45-17.69.45Z"/>
    <path class="cls-2" d="M453.71.23c6.08,0,11.11.11,15.08.34.94.04,1.77.41,2.47,1.11s1.01,1.43.94,2.18c-.49,7.97-1.4,16.19-2.72,24.63s-2.74,15.32-4.25,20.61c-.19.64-.56,1.24-1.11,1.79s-1.18.84-1.9.88c-2.83.27-5.67.4-8.5.4-2.53,0-5.48-.13-8.84-.4-.6-.04-1.19-.34-1.76-.91s-.95-1.15-1.13-1.76c-4.12-16.86-6.6-31.94-7.43-45.24-.08-.79.23-1.53.91-2.21s1.47-1.04,2.38-1.08c4.31-.23,9.6-.34,15.87-.34ZM453.6,82.54c-4.23,0-7.65-1.21-10.26-3.63-2.61-2.42-3.91-5.78-3.91-10.09s1.3-7.66,3.91-10.06c2.61-2.4,6.03-3.6,10.26-3.6s7.65,1.21,10.26,3.63c2.61,2.42,3.91,5.82,3.91,10.21s-1.31,7.55-3.94,9.95c-2.63,2.4-6.04,3.6-10.23,3.6Z"/>
    <path class="cls-1" d="M425.16,20.95c-3.72-6.86-8.93-12.07-15.62-15.62C402.85,1.77,395.07,0,386.19,0c-6.65.04-12.73,1.08-18.23,3.14s-10.2,5-14.09,8.82c-3.89,3.82-6.91,8.57-9.07,14.26-2.15,5.69-3.23,12.04-3.23,19.07,0,5.67.71,10.68,2.13,15.03,1.41,4.35,3.38,7.94,5.89,10.8,2.52,2.85,5.66,5.18,9.44,7,3.78,1.81,7.87,3.1,12.28,3.85,4.4.76,9.36,1.14,14.88,1.14,6.95,0,13.05-.63,18.28-1.87,5.24-1.25,9.87-3.3,13.92-6.15,4.04-2.86,7.11-6.77,9.21-11.74,2.1-4.97,3.15-10.99,3.15-18.06,0-9.37-1.86-17.49-5.59-24.34ZM402.68,44.05l-8.01,1.58,5.59,5.95.44.59-9.37,6.78-.36-.59-2.04-3.64-1.94-3.47-2.1,3.82-1.82,3.29-.44.59-9.37-6.78.45-.59,4.82-5.14.8-.85-.87-.17-7.19-1.37-.73-.21,3.54-11,.73.23,4.74,2.23,2.68,1.26-.71-5.73-.3-2.41v-.74h11.51v.74l-.6,4.88-.4,3.26,1.28-.59,6.13-2.83.75-.23,3.54,10.93-.75.21Z"/>
  </g>
</svg>